<?xml version="1.0" encoding="UTF-8" standalone="no"?>
<svg xmlns="http://www.w3.org/2000/svg" version="1.1">
<g   fill="none"
   stroke="rgb(0, 0, 0)"
   stroke-linecap="butt"
   stroke-linejoin="miter"
   stroke-width="1.0"
   transform="scale(1, -1)"
  >
<path id= "1" d=" M 39.0093 -3 L 48 -3 " />
<path id= "2" d=" M 39.0093 3 L 48 3 " />
</g>
<g   fill="none"
   stroke="rgb(0, 0, 0)"
   stroke-linecap="butt"
   stroke-linejoin="miter"
   stroke-width="1.0"
   transform="scale(1, -1)"
  >
<path d="M39, 2.99846 Q39, 2.98415 39, 2.96983  Q39, 2.93759 39, 2.90536  Q39, 2.85559 39, 2.80582  Q39, 2.73912 39, 2.67242  Q39, 2.5896 39, 2.50677  Q39, 2.40882 39, 2.31087  Q39, 2.19898 39, 2.08708  Q39, 1.96259 39, 1.8381  Q39, 1.70252 39, 1.56694  Q39, 1.4219 39, 1.27686  Q39, 1.12412 39, 0.97138  Q39, 0.812777 39, 0.654174  Q39, 0.330186 39, 7.21645e-16 " /><path d="M39, -2.99846 L39.0093, -3 " /><path d="M39.0093, 3 L39, 2.99846 " /><path d="M39, 0 Q39, -0.164536 39, -0.329073  Q39, -0.656388 39, -0.97138  Q39, -1.12412 39, -1.27686  Q39, -1.4219 39, -1.56694  Q39, -1.70252 39, -1.8381  Q39, -1.96259 39, -2.08708  Q39, -2.19898 39, -2.31087  Q39, -2.40882 39, -2.50677  Q39, -2.5896 39, -2.67242  Q39, -2.73912 39, -2.80582  Q39, -2.85559 39, -2.90536  Q39, -2.93759 39, -2.96983  Q39, -2.98415 39, -2.99846 " /><path d="M48, 0 L48, -0.335893  L48, -0.667563  L48, -0.990837  L48, -1.30165  L48, -1.5961  L48, -1.87047  L48, -2.12132  L48, -2.34549  L48, -2.54017  L48, -2.70291  L48, -2.83165  L48, -2.92478  L48, -2.98114  L48, -3 " /><path d="M48, 3 Q48, 2.99057 48, 2.98114  Q48, 2.95296 48, 2.92478  Q48, 2.87822 48, 2.83165  Q48, 2.76728 48, 2.70291  Q48, 2.62154 48, 2.54017  Q48, 2.44283 48, 2.34549  Q48, 2.23341 48, 2.12132  Q48, 1.99589 48, 1.87047  Q48, 1.73328 48, 1.5961  Q48, 1.44887 48, 1.30165  Q48, 1.14624 48, 0.990837  Q48, 0.8292 48, 0.667563  Q48, 0.337078 48, 7.21645e-16 " /><path id= "7" d=" M 40.0451 11 L 40.0451 3 " />
<path id= "8" d=" M 40.0451 -3 L 40.0451 -11 " />
<path id= "9" d=" M 40.0451 -11 L 37.9365 -11 " />
<path id= "10" d=" M 40.0451 11 L 37.9365 11 " />
<path id= "11" d=" M 37.9365 11 L 37.9365 -11 " />
<path id= "12" d=" M 35.9457 -11 L 37.9365 -11 " />
<path id= "13" d=" M 35.9457 11 L 37.9365 11 " />
<path id= "14" d=" M 35.9457 11 L 35.9457 -11 " />
<path id= "15" d=" M 17 10 L 35.9457 10 " />
<path id= "16" d=" M 17 -10 L 35.9457 -10 " />
<path id= "17" d=" M 17 14 L 17 -14 " />
<path id= "18" d=" M 15 -14 L 17 -14 " />
<path id= "19" d=" M 15 14 L 17 14 " />
<path id= "20" d=" M 15 14 L 15 7.525 " />
<path id= "21" d=" M 15 -7.525 L 15 -14 " />
<path d="M15, -15.05 L15, -14 " /><path d="M15, 14 L15, 15.05 " /><path d="M15, -7.525 L15, 0 " /><path d="M15, 0 L15, 7.525 " /><path d="M0, 7 Q8.44967, 17.6642 15, 15.05 " /><path d="M0, -7 Q8.44967, -17.6642 15, -15.05 " /><path d="M0, -7 L0, 0 " /><path d="M0, 0 Q8.44967, 0 15, 0 " /><path d="M0, 0 L0, 7 " /></g>

</svg>