<?xml version="1.0" encoding="UTF-8" standalone="no"?>
<svg xmlns="http://www.w3.org/2000/svg" version="1.1">
<g   fill="none"
   stroke="rgb(0, 0, 0)"
   stroke-linecap="butt"
   stroke-linejoin="miter"
   stroke-width="1.0"
   transform="scale(1, -1)"
  >
<path id= "1" d=" M -15.4109 -28.4073 L -22.379 -29.235 " />
<path id= "2" d=" M -22.379 -29.235 L -14.7841 -30.5851 " />
<path id= "3" d=" M -7.81603 -29.7574 L -10.6686 -30.0962 " />
<path id= "4" d=" M -11.7898 -30.2294 L -14.7841 -30.5851 " />
<path id= "5" d=" M -15.4109 -28.4073 L -12.0495 -29.0048 " />
<path id= "6" d=" M -9.97276 -29.374 L -7.81603 -29.7574 " />
<path id= "7" d=" M -15.4109 -28.4073 L -15.4109 -16.5347 " />
<path id= "8" d=" M -15.4109 -16.5347 L -22.379 -17.3624 " />
<path id= "9" d=" M -22.379 -29.235 L -22.379 -17.3624 " />
<path id= "10" d=" M -7.81603 -29.7574 L -7.81603 -27.0701 " />
<path d="M-12.0495, -29.0048 L-14.6655, -16.6672 " /><path id= "12" d=" M -15.4109 -16.5347 L -14.6655 -16.6672 " />
<path d="M-11.6135, -31.0611 L-12.0495, -29.0048 " /><path d="M0, -17.8089 Q-5.4922, -24.8689 -11.6135, -31.0611 " /><path d="M-14.6655, -16.6672 L-14.8835, -15.639 " /><path d="M-13.0341, -15.5086 Q-13.9639, -15.5723 -14.8835, -15.639 " /><path d="M-17.4074, 5.05653 L-13.0341, -15.5086 " /><path d="M-19.3446, 5.40089 L-21.4235, 15.2051 " /><path d="M-4.74678, 10.7377 Q-13.6054, 12.3625 -21.4235, 15.2051 " /><path d="M0, -17.8089 L-4.74678, 10.7377 " /><path d="M4.74678, 9.05006 L0, -17.8089 " /><path id= "22" d=" M -21.4235 -14.4765 L -18.8919 -14.9265 " />
<path id= "23" d=" M -18.8919 -14.9265 L -14.8835 -15.639 " />
<path id= "24" d=" M -19.875 -14.2925 L -13.0341 -15.5086 " />
<path id= "25" d=" M -19.875 -14.2925 L -21.4235 -14.4765 " />
<path id= "26" d=" M -19.875 5.49517 L -17.4074 5.05653 " />
<path id= "27" d=" M -19.875 -14.2925 L -19.875 5.49517 " />
<path id= "28" d=" M -19.875 5.49517 L -21.4235 5.31123 " />
<path d="M-21.4235, 15.2051 L-11.6135, 28.302 " /><path d="M-4.74678, 10.7377 L0, 17.8089 " /><path d="M0, 17.8089 Q-5.4922, 23.564 -11.6135, 28.302 " /><path d="M0, 17.8089 L4.74678, 9.05006 " /><path id= "33" d=" M -18.8919 -14.9265 L -35.1507 -16.8579 " />
<path id= "34" d=" M -35.1507 -16.8579 L -22.379 -19.1282 " />
<path id= "35" d=" M -21.4235 -14.4765 L -21.4235 5.31123 " />
<path id= "36" d=" M -19.8358 7.71723 L -35.1507 5.89799 " />
<path id= "37" d=" M -35.1507 -16.8579 L -35.1507 5.89799 " />
<path id= "38" d=" M -30.5053 -11.3591 L -30.5053 -3.44404 " />
<path id= "39" d=" M -24.3115 -2.70828 L -30.5053 -3.44404 " />
<path id= "40" d=" M -24.3115 -10.6234 L -24.3115 -2.70828 " />
<path id= "41" d=" M -24.3115 -10.6234 L -30.5053 -11.3591 " />
<path id= "42" d=" M -29.8724 -11.2839 L -29.8724 -3.55655 " />
<path id= "43" d=" M -30.5053 -3.44404 L -29.8724 -3.55655 " />
<path id= "44" d=" M -24.3115 -2.89597 L -29.8724 -3.55655 " />
<path id= "45" d=" M -36.1 -17.6785 L -37.6414 -18.0512 " />
<path id= "46" d=" M -37.6414 -18.0512 L -22.379 -20.7643 " />
<path id= "47" d=" M -36.1 -17.6785 L -22.379 -20.1176 " />
<path id= "48" d=" M -36.1 -17.6785 L -38.0294 7.69791 " />
<path id= "49" d=" M -38.0294 7.69791 L -39.5708 7.32516 " />
<path id= "50" d=" M -37.6414 -18.0512 L -39.5708 7.32516 " />
<path id= "51" d=" M -38.0294 7.69791 L -30.8068 6.414 " />
<path d="M-38.4848 -6.95853 A3.5 2.19165 96.7744 0 0 -38.8692 -1.90263" />
</g>

</svg>