<?xml version="1.0" encoding="UTF-8" standalone="no"?>
<svg xmlns="http://www.w3.org/2000/svg" version="1.1">
<g   fill="none"
   stroke="rgb(0, 0, 0)"
   stroke-linecap="butt"
   stroke-linejoin="miter"
   stroke-width="1.0"
   transform="scale(1, -1)"
  >
<path id= "1" d=" M 3.5 41.0723 L 3.5 47.8919 " />
<path id= "2" d=" M -3.5 41.2549 L -3.5 47.8919 " />
<path id= "3" d=" M 3.5 36.9167 L 3.5 37.692 " />
<path id= "4" d=" M -3.5 36.9167 L -3.5 37.2203 " />
</g>
<g   fill="none"
   stroke="rgb(0, 0, 0)"
   stroke-linecap="butt"
   stroke-linejoin="miter"
   stroke-width="1.0"
   transform="scale(1, -1)"
  >
<path id= "1" d=" M -23.9168 13.9102 L -23.9168 22.8899 " />
<path id= "2" d=" M -23.9168 13.9102 L -21.5689 13.7552 " />
<path id= "3" d=" M -23.9168 13.9102 L -21.5689 14.0702 " />
<path id= "4" d=" M -23.9168 22.8899 L -18.718 23.2442 " />
<path d="M-12.626, -0.860336 Q-16.9882, 5.639 -20.7344, 12.9278 " /><path d="M-4.76125, 13.7554 L-13.8652, 12.4745 " /><path d="M-4.76125, 13.7554 Q-4.93816, 14.7601 -5.08508, 15.7723 " /><path d="M-5.08508, 15.7723 L-0.525591, 16.4123 " /><path d="M1.66899, 0.830764 Q-0.931791, 8.23987 -0.525591, 16.4123 " /><path d="M-12.626, -0.860336 L1.66899, 0.830764 " /><path d="M12.3599, 0.125165 Q17.3412, 7.03385 21.5689, 14.9541 " /><path d="M12.3599, 0.125165 L-12.626, -0.860336 " /><path id= "13" d=" M -21.5689 12.9829 L -13.8652 12.4745 " />
<path id= "14" d=" M -21.5689 12.9829 L -21.5689 14.9784 " />
<path id= "15" d=" M -7.54002 13.9388 L -4.76125 13.7554 " />
<path id= "16" d=" M -21.5689 12.9829 L -7.54002 13.9388 " />
<path id= "17" d=" M -7.54002 15.9343 L -5.08508 15.7723 " />
<path id= "18" d=" M -7.54002 13.9388 L -7.54002 15.9343 " />
<path d="M-0.525591, 16.4123 L21.0433, 16.4001 " /><path d="M21.0433, 16.4001 L21.5689, 14.9541 " /><path d="M1.66899, 0.830764 L12.626, 0.860336 " /><path d="M12.626, 0.860336 Q17.1687, 8.24767 21.0433, 16.4001 " /><path d="M12.626, 0.860336 L12.3599, 0.125165 " /><path id= "24" d=" M -18.718 15.1727 L -18.718 35.743 " />
<path id= "25" d=" M -21.5689 14.9784 L -7.54002 15.9343 " />
<path id= "26" d=" M 13.8079 16.4042 L 13.8079 35.7604 " />
<path id= "27" d=" M -2.58479 16.1233 L -2.58479 36.8423 " />
<path id= "28" d=" M -2.58479 36.8423 L 13.8079 35.7604 " />
<path id= "29" d=" M -18.718 35.743 L -2.58479 36.8423 " />
<path id= "30" d=" M -15.2108 29.9955 L -9.59923 30.3778 " />
<path id= "31" d=" M -9.59923 22.3958 L -9.59923 30.3778 " />
<path id= "32" d=" M -15.2108 22.0135 L -9.59923 22.3958 " />
<path id= "33" d=" M -15.2108 22.0135 L -15.2108 29.9955 " />
<path id= "34" d=" M -15.2108 29.9955 L -14.498 29.9484 " />
<path id= "35" d=" M -14.498 29.9484 L -9.59923 30.2822 " />
<path id= "36" d=" M -14.498 22.062 L -14.498 29.9484 " />
<path id= "37" d=" M -20.4885 35.7657 L -20.623 37.7429 " />
<path id= "38" d=" M -20.4885 35.7657 L -18.718 35.6489 " />
<path id= "39" d=" M -20.4885 35.7657 L -2.33496 39.4891 " />
<path id= "40" d=" M -2.33496 39.4891 L -2.46942 41.4662 " />
<path id= "41" d=" M -20.623 37.7429 L -2.46942 41.4662 " />
<path id= "42" d=" M -2.46942 41.4662 L 16.0614 40.2432 " />
<path id= "43" d=" M 6.37199 36.2511 L 16.1959 38.2661 " />
<path id= "44" d=" M 16.1959 38.2661 L 16.0614 40.2432 " />
<path id= "45" d=" M -2.33496 39.4891 L 16.1959 38.2661 " />
<path d="M2.45505, 37.9597 L2.5924, 37.9495  L2.72142, 37.9378  L2.84171, 37.9245  L2.95288, 37.9098  L3.05456, 37.8935  L3.14644, 37.8759  L3.22821, 37.8569  L3.29962, 37.8367  L3.36044, 37.8152  L3.41046, 37.7926  L3.44954, 37.7688  L3.47754, 37.7441  L3.49438, 37.7185  L3.5, 37.692 " /><path d="M-3.5, 37.2203 L-3.45088, 37.3028  L-3.30491, 37.3896  L-3.06617, 37.4782  L-2.74138, 37.5663  L-2.33964, 37.6513  L-1.87223, 37.7307  L-1.35228, 37.8025  L-0.79437, 37.8646  L-0.214165, 37.9152  L0.372051, 37.9529  L0.947824, 37.9766  L1.497, 37.9858  L2.00415, 37.9801  L2.45505, 37.9597 " /><path d="M2.45505 48.0592 A3.5 0.234715 0 0 0 3.5 47.8919" />
<path d="M-3.5 47.8919 A3.5 0.234715 0 0 0 2.45505 48.0592" />
<path d="M2.45505 37.084 A3.5 0.234715 0 0 0 3.5 36.9167" />
<path d="M3.5 36.9167 A3.5 0.234715 0 0 0 -0.159762 36.6822" />
<path d="M-3.09713 36.8074 A3.5 0.234715 0 0 0 -3.5 36.9167" />
<path d="M-3.5 36.9167 A3.5 0.234715 0 0 0 2.45505 37.084" />
<path d="M1.05217 36.9884 A1.5 0.100592 0 0 0 1.5 36.9167" />
<path d="M1.5 36.9167 A1.5 0.100592 0 0 0 -1.5 36.9167" />
<path d="M-1.5 36.9167 A1.5 0.100592 0 0 0 1.05217 36.9884" />
</g>

</svg>