<?xml version="1.0" encoding="UTF-8" standalone="no"?>
<svg xmlns="http://www.w3.org/2000/svg" version="1.1">
<g   fill="none"
   stroke="rgb(0, 0, 0)"
   stroke-linecap="butt"
   stroke-linejoin="miter"
   stroke-width="1.0"
   transform="scale(1, -1)"
  >
<path id= "1" d=" M 3.5 41.5448 L 3.5 41.8263 " />
</g>
<g   fill="none"
   stroke="rgb(0, 0, 0)"
   stroke-linecap="butt"
   stroke-linejoin="miter"
   stroke-width="1.0"
   transform="scale(1, -1)"
  >
<path id= "1" d=" M -13.1828 25.5423 L -13.1828 33.3848 " />
<path id= "2" d=" M -13.1828 33.3848 L -22.4416 29.6396 " />
<path id= "3" d=" M -22.4416 21.7971 L -22.4416 29.6396 " />
<path id= "4" d=" M -13.1828 25.5423 L -17.2806 23.8847 " />
<path id= "5" d=" M -18.6524 23.3298 L -22.4416 21.7971 " />
<path id= "6" d=" M -13.1828 25.5423 L -5.54897 20.9999 " />
<path id= "7" d=" M -5.54897 20.9999 L -5.54897 28.8423 " />
<path id= "8" d=" M -13.1828 33.3848 L -5.54897 28.8423 " />
<path id= "9" d=" M -22.4416 21.7971 L -16.6113 18.3279 " />
<path d="M-17.2806, 23.8847 L-6.45771, 20.6323 " /><path id= "11" d=" M -5.54897 20.9999 L -6.45771 20.6323 " />
<path d="M-19.0845, 24.4268 L-17.2806, 23.8847 " /><path d="M-11.4507, 6.81366 Q-15.5705, 15.4465 -19.0845, 24.4268 " /><path d="M-6.45771, 20.6323 L-5.5558, 20.3613 " /><path d="M-5.92265, 18.4701 Q-5.73035, 19.4169 -5.5558, 20.3613 " /><path d="M12.1318, 13.056 L-5.92265, 18.4701 " /><path d="M14.9544, 14.1977 L21.5015, 12.2302 " /><path d="M12.1482, -1.44462 Q17.3317, 5.75449 21.5015, 12.2302 " /><path d="M-11.4507, 6.81366 L12.1482, -1.44462 " /><path d="M0.574733, -6.12611 L-11.4507, 6.81366 " /><path id= "21" d=" M 2.41706 23.5863 L -0.669208 22.3379 " />
<path id= "22" d=" M -0.669208 22.3379 L -5.5558 20.3613 " />
<path id= "23" d=" M 2.41706 21.8435 L -5.92265 18.4701 " />
<path id= "24" d=" M 2.41706 21.8435 L 2.41706 23.5863 " />
<path id= "25" d=" M 15.14 14.2728 L 12.1318 13.056 " />
<path id= "26" d=" M 2.41706 21.8435 L 15.14 14.2728 " />
<path id= "27" d=" M 15.14 14.2728 L 15.14 16.0156 " />
<path d="M21.5015, 12.2302 L19.0845, 1.71461 " /><path d="M12.1482, -1.44462 L11.4507, -6.81366 " /><path d="M11.4507, -6.81366 Q15.5705, -3.0838 19.0845, 1.71461 " /><path d="M11.4507, -6.81366 L0.574733, -6.12611 " /><path id= "32" d=" M -15.0842 14.7642 L -21.5015 12.1685 " />
<path id= "33" d=" M -21.5015 12.1685 L -10.1494 5.41344 " />
<path id= "34" d=" M -15.7271 16.247 L -18.4152 15.1596 " />
<path id= "35" d=" M -18.4152 15.1596 L -21.5015 13.9112 " />
<path id= "36" d=" M -21.5015 12.1685 L -21.5015 13.9112 " />
<path id= "37" d=" M -0.669208 22.3379 L -0.669208 40.6369 " />
<path id= "38" d=" M -0.669208 40.6369 L -18.4152 33.4586 " />
<path id= "39" d=" M -18.4152 15.1596 L -18.4152 19.4013 " />
<path id= "40" d=" M -18.4152 31.2682 L -18.4152 33.4586 " />
<path id= "41" d=" M 2.41706 23.5863 L 15.14 16.0156 " />
<path id= "42" d=" M 13.9622 16.7164 L 13.9622 31.9305 " />
<path id= "43" d=" M -0.669208 40.6369 L 13.9622 31.9305 " />
<path id= "44" d=" M 2.51153 33.5159 L 7.60072 30.4876 " />
<path id= "45" d=" M 7.60072 23.5166 L 7.60072 30.4876 " />
<path id= "46" d=" M 2.51153 26.5449 L 7.60072 23.5166 " />
<path id= "47" d=" M 2.51153 26.5449 L 2.51153 33.5159 " />
<path id= "48" d=" M 2.51153 32.7447 L 6.82915 30.1755 " />
<path id= "49" d=" M 7.60072 30.4876 L 6.82915 30.1755 " />
<path id= "50" d=" M 6.82915 23.9757 L 6.82915 30.1755 " />
<path id= "51" d=" M -0.148006 41.4836 L -0.26995 43.2909 " />
<path id= "52" d=" M -0.26995 43.2909 L -20.3307 35.1763 " />
<path id= "53" d=" M -20.2087 33.369 L -20.3307 35.1763 " />
<path id= "54" d=" M -0.148006 41.4836 L -20.2087 33.369 " />
<path id= "55" d=" M -0.148006 41.4836 L 16.3157 33.8584 " />
<path id= "56" d=" M 16.3157 33.8584 L 16.1938 35.6657 " />
<path id= "57" d=" M -0.26995 43.2909 L 16.1938 35.6657 " />
<path id= "58" d=" M -20.2087 33.369 L -18.4152 32.5383 " />
<path id= "59" d=" M 16.3157 33.8584 L 12.9859 32.5115 " />
<path d="M-3.48389 41.9908 A3.5 1.71713 0 0 0 3.5 41.8263" />
</g>

</svg>