<svg width="800" height="600" xmlns="http://www.w3.org/2000/svg">
<g transform="translate(50, 50)">
<g   fill="none"
   stroke="rgb(0, 0, 0)"
   stroke-linecap="butt"
   stroke-linejoin="miter"
   stroke-width="1.0"
   transform="scale(1, -1)"
  >
<path id= "1" d=" M 11.9372 -14 L 11.9372 6.24866 " />
<path id= "2" d=" M 19.1331 0.671817 L 19.1331 -12.5 " />
<path id= "3" d=" M 26.0473 -2.49689 L 23.4469 -2.67132 " />
<path id= "4" d=" M 33.8232 -1.9753 L 31.2642 -2.14695 " />
<path id= "5" d=" M 19.1331 12.5 L 19.1331 5.61454 " />
<path id= "6" d=" M 11.9372 9.33244 L 11.9372 14 " />
<path id= "7" d=" M 11.9372 14 L 39.8083 14 " />
<path id= "8" d=" M 39.8083 -14 L 39.8083 14 " />
<path id= "9" d=" M 11.9372 -14 L 39.8083 -14 " />
<path id= "10" d=" M 23.4469 -2.67132 L 0 15.5 " />
<path id= "11" d=" M 40 -14 L 40 14 " />
<path id= "12" d=" M 40 -14 L 39.8083 -14 " />
<path id= "13" d=" M 15 -12.5 L 15 3.875 " />
<path id= "14" d=" M 15 -12.5 L 19.1331 -12.5 " />
<path id= "15" d=" M 25.7673 2.18688 L 0 15.5 " />
<circle cx ="28.5" cy ="0" r ="3.5" /><path id= "17" d=" M 33.8232 -1.9753 L 31.8648 -0.963468 " />
<path id= "18" d=" M 15 7.75 L 15 12.5 " />
<path id= "19" d=" M 15 12.5 L 19.1331 12.5 " />
<path id= "20" d=" M 40 14 L 39.8083 14 " />
<circle cx ="28.5" cy ="0" r ="1.5" /><path id= "22" d=" M 40 14 L 40 15.5 " />
<path id= "23" d=" M 0 15.5 L 40 15.5 " />
<path id= "24" d=" M 0 -15.5 L 0 15.5 " />
<path id= "25" d=" M 0 -15.5 L 40 -15.5 " />
<path id= "26" d=" M 40 -15.5 L 38.0645 -14 " />
<path id= "27" d=" M 60 -15.5 L 40 -5.16667 " />
<path id= "28" d=" M 40 -15.5 L 60 -15.5 " />
<path id= "29" d=" M 2 -5.405 L 2 5.405 " />
<path id= "30" d=" M 2 -5.405 L 11.9372 -5.405 " />
<path id= "31" d=" M 2 5.405 L 11.9372 5.405 " />
<path id= "32" d=" M 30 1.77636e-15 L 27.6321 1.22342 " />
<path id= "33" d=" M 11.9372 -3.5 L 4 -3.5 " />
<path id= "34" d=" M 11.9372 3.5 L 4 3.5 " />
<path id= "35" d=" M 4 -3.5 L 4 3.5 " />
</g>
</g>
<g transform="translate(300, 50)">
<g   fill="none"
   stroke="rgb(0, 0, 0)"
   stroke-linecap="butt"
   stroke-linejoin="miter"
   stroke-width="1.0"
   transform="scale(1, -1)"
  >
<path id= "1" d=" M 35.4908 -3.5 L 45.5 -3.5 " />
<path id= "2" d=" M 35.4908 3.5 L 45.5 3.5 " />
</g>
<g   fill="none"
   stroke="rgb(0, 0, 0)"
   stroke-linecap="butt"
   stroke-linejoin="miter"
   stroke-width="1.0"
   transform="scale(1, -1)"
  >
<path id= "1" d=" M 30.8163 14 L 30.8163 12.5 " />
<path id= "2" d=" M 35.4908 14 L 35.4908 -14 " />
<path id= "3" d=" M 40 -15.5 L 60 -15.5 " />
<path id= "4" d=" M 33.3074 -12.5 L 33.3074 12.5 " />
<path id= "5" d=" M 30.8163 -12.5 L 30.8163 -14 " />
<path id= "6" d=" M 30.8163 -14 L 33.5 -14 " />
<path id= "7" d=" M 33.5 14 L 33.5 -14 " />
<path id= "8" d=" M 30.8163 14 L 33.5 14 " />
<path id= "9" d=" M 33.5 14 L 35.4908 14 " />
<path id= "10" d=" M 42.7742 -3.5 L 60 -15.5 " />
<path id= "11" d=" M 35.4908 0.963468 L 36.367 0.963468 " />
<path d="M45.5, 0 L45.5, -0.391876  L45.5, -0.778823  L45.5, -1.15598  L45.5, -1.51859  L45.5, -1.86211  L45.5, -2.18221  L45.5, -2.47487  L45.5, -2.73641  L45.5, -2.96353  L45.5, -3.15339  L45.5, -3.30359  L45.5, -3.41225  L45.5, -3.47799  L45.5, -3.5 " /><path d="M45.5, 3.5 Q45.5, 3.489 45.5, 3.47799  Q45.5, 3.44512 45.5, 3.41225  Q45.5, 3.35792 45.5, 3.30359  Q45.5, 3.22849 45.5, 3.15339  Q45.5, 3.05846 45.5, 2.96353  Q45.5, 2.84997 45.5, 2.73641  Q45.5, 2.60564 45.5, 2.47487  Q45.5, 2.32854 45.5, 2.18221  Q45.5, 2.02216 45.5, 1.86211  Q45.5, 1.69035 45.5, 1.51859  Q45.5, 1.33728 45.5, 1.15598  Q45.5, 0.9674 45.5, 0.778823  Q45.5, 0.393258 45.5, 8.32667e-16 " /><path id= "14" d=" M 35.4908 1.57383 L 36.367 0.963468 " />
<path id= "15" d=" M 35.4908 -12.0054 L 40 -15.5 " />
<path id= "16" d=" M 33.5 -14 L 35.4908 -14 " />
<path id= "17" d=" M 19.8065 12.5 L 33.3074 12.5 " />
<path id= "18" d=" M 15.5 -12.5 L 33.3074 -12.5 " />
<path id= "19" d=" M 23.7208 4.13333 L 15.5 4.13333 " />
<path d="M23.7208 4.13333 A4.5 4.5 0 0 1 21 1.10218e-15" /><path d="M21 0 A4.5 4.5 0 1 1 27.2792 4.13333" /><path id= "22" d=" M 31.8167 4.13333 L 27.2792 4.13333 " />
<path id= "23" d=" M 15.5 5.16667 L 15.5 -15.5 " />
<path id= "24" d=" M 15.5 15.5 L 31.8167 4.13333 " />
<path id= "25" d=" M 29.7246 1.55 L 21.2754 1.55 " />
<path id= "26" d=" M 13.3333 5.16667 L 15.5 5.16667 " />
<path id= "27" d=" M 0 15.5 L 13.3333 5.16667 " />
<path id= "28" d=" M 0 15.5 L 15.5 15.5 " />
<path id= "29" d=" M 0 -15.5 L 15.5 -15.5 " />
<path id= "30" d=" M 0 15.5 L 0 -15.5 " />
</g>
</g>
<g transform="translate(550, 50)">
<g   fill="none"
   stroke="rgb(0, 0, 0)"
   stroke-linecap="butt"
   stroke-linejoin="miter"
   stroke-width="1.0"
   transform="scale(1, -1)"
  >
<path id= "1" d=" M 41.4583 25 L 45.5 25 " />
</g>
<g   fill="none"
   stroke="rgb(0, 0, 0)"
   stroke-linecap="butt"
   stroke-linejoin="miter"
   stroke-width="1.0"
   transform="scale(1, -1)"
  >
<path id= "1" d=" M 32.8071 11.9372 L 35.4908 39.8083 " />
<path id= "2" d=" M 40 0 L 60 0 " />
<path id= "3" d=" M 25 15 L 40 0 " />
<path id= "4" d=" M 30.8163 12.1289 L 33.5 40 " />
<path id= "5" d=" M 40.8892 25.7673 L 60 0 " />
<path id= "6" d=" M 34.7389 32 L 45.5 32 " />
<path id= "7" d=" M 34.1388 25.7673 L 40.8892 25.7673 " />
<path d="M45.5, 32 L45.5, 31.9122  L45.5, 31.6534  L45.5, 31.2364  L45.5, 30.6822  L45.5, 30.0186  L45.5, 29.2788  L45.5, 28.5  L45.5, 27.7212  L45.5, 26.9814  L45.5, 26.3178  L45.5, 25.7636  L45.5, 25.3466  L45.5, 25.0878  L45.5, 25 " /><path id= "9" d=" M 34.9145 33.8232 L 36.2667 32 " />
<path id= "10" d=" M 31.9894 12.016 L 40 -7.10543e-15 " />
<path id= "11" d=" M 33.5 15 L 33.5 19.1331 " />
<path id= "12" d=" M 33.102 15 L 33.5 15 " />
<path id= "13" d=" M 30.8163 12.1289 L 32.8071 11.9372 " />
<path id= "14" d=" M 33.5 40 L 35.4908 39.8083 " />
<path id= "15" d=" M 30 15 L 30.9549 13.5677 " />
<path id= "16" d=" M 15.5 15 L 31.0928 15 " />
<path id= "17" d=" M 15.5 38 L 33.3074 38 " />
<path id= "18" d=" M 29.5 21 L 29.5 31 " />
<path id= "19" d=" M 29.5 21 L 21.5 21 " />
<path id= "20" d=" M 29.5 31 L 21.5 31 " />
<path id= "21" d=" M 21.5 21 L 21.5 31 " />
<path id= "22" d=" M 15.5 0 L 15.5 40 " />
<path id= "23" d=" M 15.5 60 L 31.8167 38 " />
<path id= "24" d=" M 0 60 L 13.3333 40 " />
<path id= "25" d=" M 0 60 L 15.5 60 " />
<path id= "26" d=" M 0 40 L 15.5 40 " />
<path id= "27" d=" M 0 0 L 0 40 " />
<path id= "28" d=" M 0 0 L 15.5 0 " />
<path id= "29" d=" M 15.5 2 L 25.5 2 " />
<path id= "30" d=" M 15.5 14 L 25.5 14 " />
<path id= "31" d=" M 25.5 2 L 25.5 14 " />
<path id= "32" d=" M 0 40 L 0 60 " />
</g>
</g>
</svg>
