<?xml version="1.0" encoding="UTF-8" standalone="no"?>
<svg xmlns="http://www.w3.org/2000/svg" version="1.1">
<g   fill="none"
   stroke="rgb(0, 0, 0)"
   stroke-linecap="butt"
   stroke-linejoin="miter"
   stroke-width="1.0"
   transform="scale(1, -1)"
  >
<path id= "1" d=" M -28 -6 L -28 6 " />
<path id= "2" d=" M -28 -6 L -16.1917 -6 " />
<path id= "3" d=" M -28 6 L -16.1917 6 " />
<path d="M-30, 0 L-28, -0.688889 " /><path d="M-28, 0.688889 L-30, 0 " /><path d="M7.74194, -13 L15, -15.5 " /><path d="M15, 15.5 L7.74194, 13 " /><path id= "8" d=" M -15 -15.5 L -15 -13 " />
<path id= "9" d=" M 5 -15.5 L 5 -13 " />
<path d="M15, -15.5 L30, 0 " /><path d="M30, 0 L15, 15.5 " /><path id= "12" d=" M 5 13 L 5 15.5 " />
<path id= "13" d=" M -15 13 L -15 15.5 " />
<path id= "14" d=" M -15 -15.5 L 5 -15.5 " />
<path id= "15" d=" M -15 15.5 L 5 15.5 " />
<path id= "16" d=" M -16.1917 -13 L -16.1917 13 " />
<path id= "17" d=" M 9.8803 -13 L 9.68861 -13 " />
<path id= "18" d=" M -16.1917 -13 L 9.68861 -13 " />
<path id= "19" d=" M -16.1917 13 L 9.68861 13 " />
<path id= "20" d=" M 9.68861 -13 L 9.68861 13 " />
<path id= "21" d=" M 9.8803 13 L 9.68861 13 " />
<path id= "22" d=" M 9.8803 -13 L 9.8803 13 " />
<circle cx ="0" cy ="0" r ="3.5" /><circle cx ="0" cy ="0" r ="1.5" /></g>

</svg>