<?xml version="1.0" encoding="UTF-8" standalone="no"?>
<svg xmlns="http://www.w3.org/2000/svg" version="1.1">
<g   fill="none"
   stroke="rgb(0, 0, 0)"
   stroke-linecap="butt"
   stroke-linejoin="miter"
   stroke-width="1.0"
   transform="scale(1, -1)"
  >
<path id= "1" d=" M -3.5 -38.8361 L -3.5 -47.5289 " />
<path id= "2" d=" M 3.5 -39.4873 L 3.5 -47.5289 " />
</g>
<g   fill="none"
   stroke="rgb(0, 0, 0)"
   stroke-linecap="butt"
   stroke-linejoin="miter"
   stroke-width="1.0"
   transform="scale(1, -1)"
  >
<path id= "1" d=" M -28.6342 -14.8127 L -28.6342 -23.7244 " />
<path id= "2" d=" M -28.6342 -23.7244 L -26.0025 -22.0881 " />
<path id= "3" d=" M -26.0025 -13.1765 L -26.0025 -22.0881 " />
<path id= "4" d=" M -28.6342 -14.8127 L -27.4694 -14.0885 " />
<path id= "5" d=" M -27.4694 -14.0885 L -27.1673 -13.9006 " />
<path id= "6" d=" M -27.1673 -13.9006 L -26.0025 -13.1765 " />
<path id= "7" d=" M -28.6342 -23.7244 L -16.9263 -24.0922 " />
<path id= "8" d=" M -26.0025 -22.0881 L -14.2946 -22.4559 " />
<path id= "9" d=" M -16.9263 -24.0922 L -14.2946 -22.4559 " />
<path id= "10" d=" M -26.0025 -13.1765 L -14.2946 -13.5443 " />
<path id= "11" d=" M -14.2946 -13.5443 L -14.2946 -22.4559 " />
<path d="M-29.2697, -13.9333 L-27.4694, -14.0885 " /><path d="M-27.1673, -13.9006 L-29.2697, -13.9333 " /><path d="M-17.5618, 0.551703 Q-23.8804, -6.27394 -29.2697, -13.9333 " /><path d="M10.3273, -17.3477 L11.2355, -17.426 " /><path d="M11.4014, 0.716158 Q14.2235, -5.63471 18.0341, -13.199 " /><path d="M18.0341, -13.199 L7.52218, -13.3622 " /><path d="M-13.606, -11.773 Q-13.5513, -12.7265 -13.5017, -13.6885 " /><path d="M-13.5017, -13.6885 L-14.2946, -13.7008 " /><path d="M11.4014, 0.716158 L-17.5618, 0.551703 " /><path id= "21" d=" M -14.2946 -14.1815 L -13.5017 -13.6885 " />
<path d="M11.2355, -17.426 L29.2697, -15.7723 " /><path d="M29.2697, -15.7723 L18.0341, -13.199 " /><path id= "24" d=" M 7.40034 -13.438 L 7.52218 -13.3622 " />
<path id= "25" d=" M 7.40034 -13.438 L 10.3273 -13.5299 " />
<path d="M17.5618, -0.551703 Q23.8804, -7.77434 29.2697, -15.7723 " /><path d="M17.5618, -0.551703 L11.4014, 0.716158 " /><path id= "28" d=" M 7.52218 -13.3622 L 8.27759 -12.8925 " />
<path id= "29" d=" M 8.27759 -10.9122 L 8.27759 -12.8925 " />
<path id= "30" d=" M -13.606 -11.773 L -11.2355 -10.2992 " />
<path id= "31" d=" M -11.2355 -10.2992 L 8.27759 -10.9122 " />
<path id= "32" d=" M -13.5017 -13.6885 L -12.1128 -12.825 " />
<path id= "33" d=" M -12.1128 -12.825 L -11.2355 -12.2795 " />
<path id= "34" d=" M -11.2355 -10.2992 L -11.2355 -12.2795 " />
<path id= "35" d=" M -17.1569 -24.0849 L -17.1569 -36.1178 " />
<path id= "36" d=" M -12.1128 -12.825 L -12.1128 -33.4672 " />
<path id= "37" d=" M 5.82671 -13.3885 L 7.40034 -13.438 " />
<path d="M7.52218, -13.3622 L5.82671, -13.3885 " /><path id= "39" d=" M -12.1128 -12.825 L -2.35621 -13.1315 " />
<path id= "40" d=" M -2.35621 -13.1315 L -2.35621 -27.9842 " />
<path id= "41" d=" M -2.35621 -27.9842 L 7.40034 -28.2907 " />
<path id= "42" d=" M 7.40034 -13.438 L 7.40034 -28.2907 " />
<path id= "43" d=" M 10.3273 -13.5299 L 10.3273 -34.3238 " />
<path id= "44" d=" M -10.5607 -33.6676 L 10.3273 -34.3238 " />
<path id= "45" d=" M 7.60885 -36.014 L 10.3273 -34.3238 " />
<path id= "46" d=" M -11.2355 -12.2795 L 8.27759 -12.8925 " />
<path id= "47" d=" M -2.35621 -13.1315 L 5.82671 -13.3885 " />
<path id= "48" d=" M -18.4615 -36.9289 L -18.6485 -38.8943 " />
<path id= "49" d=" M -18.6485 -38.8943 L -12.9465 -35.3491 " />
<path id= "50" d=" M -12.7594 -33.3837 L -12.9465 -35.3491 " />
<path id= "51" d=" M -18.4615 -36.9289 L -12.7594 -33.3837 " />
<path id= "52" d=" M -18.6485 -38.8943 L -3.5 -40.8505 " />
<path id= "53" d=" M 3.5 -41.7545 L 6.60171 -42.155 " />
<path id= "54" d=" M -12.9465 -35.3491 L 12.3038 -38.6098 " />
<path id= "55" d=" M 6.60171 -42.155 L 12.3038 -38.6098 " />
<path d="M3.5, -39.4873 L3.41225, -39.354  L3.15339, -39.2111  L2.73641, -39.0657  L2.18221, -38.9251  L1.51859, -38.7963  L0.778823, -38.6859  L-4.48508e-12, -38.5994  L-0.778823, -38.541  L-1.51859, -38.5138  L-2.18221, -38.5191  L-2.73641, -38.5566  L-3.15339, -38.6244  L-3.41225, -38.7192  L-3.5, -38.8361 " /><path id= "57" d=" M -12.7594 -33.3837 L 12.4908 -36.6444 " />
<path id= "58" d=" M 12.4908 -36.6444 L 12.3038 -38.6098 " />
<path d="M3.41479 -47.6362 A3.5 0.48915 180 0 1 3.5 -47.5289" />
<path d="M3.5 -47.5289 A3.5 0.48915 180 0 1 -3.5 -47.5289" />
<path d="M-3.5 -47.5289 A3.5 0.48915 180 0 1 3.41479 -47.6362" />
<path d="M1.46348 -47.5749 A1.5 0.209636 180 0 1 1.5 -47.5289" />
<path d="M1.5 -47.5289 A1.5 0.209636 180 0 1 -1.5 -47.5289" />
<path d="M-1.5 -47.5289 A1.5 0.209636 180 0 1 1.46348 -47.5749" />
</g>

</svg>