<?xml version="1.0" encoding="UTF-8" standalone="no"?>
<svg xmlns="http://www.w3.org/2000/svg" version="1.1">
<g   fill="none"
   stroke="rgb(0, 0, 0)"
   stroke-linecap="butt"
   stroke-linejoin="miter"
   stroke-width="1.0"
   transform="scale(1, -1)"
  >
<path id= "1" d=" M -39.2129 -3.5 L -48 -3.5 " />
<path id= "2" d=" M -37 -3.5 L -37.2036 -3.5 " />
</g>
<g   fill="none"
   stroke="rgb(0, 0, 0)"
   stroke-linecap="butt"
   stroke-linejoin="miter"
   stroke-width="1.0"
   transform="scale(1, -1)"
  >
<path id= "1" d=" M -15 -28 L -24 -28 " />
<path id= "2" d=" M -15 -28 L -15 -16 " />
<path id= "3" d=" M -15 -16 L -24 -16 " />
<path id= "4" d=" M -24 -28 L -24 -16 " />
<path d="M-15, -30 L-15, -28 " /><path d="M0, -18 Q-7.09376, -24.4763 -15, -30 " /><path d="M-15, -16 L-15, -15 " /><path d="M-15, 5 L-15, 15 " /><path d="M0, 10 Q-7.09376, 11.6969 -15, 15 " /><path d="M0, -18 L0, 10 " /><path id= "11" d=" M -13 -15 L -15 -15 " />
<path id= "12" d=" M -13 -15 L -13 5 " />
<path id= "13" d=" M -13 5 L -15 5 " />
<path d="M-15, 15 L-15, 30 " /><path d="M0, 10 L0, 18 " /><path d="M0, 18 Q-7.09376, 24.4763 -15, 30 " /><path id= "17" d=" M -15 -15 L -36 -15 " />
<path id= "18" d=" M -15 -15 L -15 5 " />
<path id= "19" d=" M -15 8 L -36 8 " />
<path id= "20" d=" M -36 -15 L -36 8 " />
<path id= "21" d=" M -30 -10 L -30 -2 " />
<path id= "22" d=" M -22 -2 L -30 -2 " />
<path id= "23" d=" M -22 -10 L -22 -2 " />
<path id= "24" d=" M -22 -10 L -30 -10 " />
<path id= "25" d=" M -36 -16 L -37.9908 -16.1917 " />
<path id= "26" d=" M -36 -16 L -38.492 9.8803 " />
<path id= "27" d=" M -38.492 9.8803 L -40.4828 9.68861 " />
<path id= "28" d=" M -37.9908 -16.1917 L -40.4828 9.68861 " />
<path id= "29" d=" M -39.8869 3.5 L -48 3.5 " />
<path d="M-48, -3.5 L-48, -3.41225  L-48, -3.15339  L-48, -2.73641  L-48, -2.18221  L-48, -1.51859  L-48, -0.778823  L-48, -6.66134e-16  L-48, 0.778823  L-48, 1.51859  L-48, 2.18221  L-48, 2.73641  L-48, 3.15339  L-48, 3.41225  L-48, 3.5 " /><path id= "31" d=" M -37 3.5 L -37.8776 3.5 " />
<path d="M-37, -3.5 L-37, -3.41225  L-37, -3.15339  L-37, -2.73641  L-37, -2.18221  L-37, -1.51859  L-37, -0.778823  L-37, -6.66134e-16  L-37, 0.778823  L-37, 1.51859  L-37, 2.18221  L-37, 2.73641  L-37, 3.15339  L-37, 3.41225  L-37, 3.5 " /></g>

</svg>