<?xml version="1.0" encoding="UTF-8" standalone="no"?>
<svg xmlns="http://www.w3.org/2000/svg" version="1.1">
<g   fill="none"
   stroke="rgb(0, 0, 0)"
   stroke-linecap="butt"
   stroke-linejoin="miter"
   stroke-width="1.0"
   transform="scale(1, -1)"
  >
<path id= "1" d=" M -39.2981 -3.34119 L -48 -3.34119 " />
</g>
<g   fill="none"
   stroke="rgb(0, 0, 0)"
   stroke-linecap="butt"
   stroke-linejoin="miter"
   stroke-width="1.0"
   transform="scale(1, -1)"
  >
<path id= "1" d=" M -39 2.65881 L -48 2.65881 " />
<path d="M-39, -0.245121 L-39, 0.0832036  L-39, 0.406406  L-39, 0.720586  L-39, 1.02195  L-39, 1.30687  L-39, 1.57189  L-39, 1.81383  L-39, 2.02976  L-39, 2.21708  L-39, 2.37352  L-39, 2.4972  L-39, 2.58662  L-39, 2.64071  L-39, 2.65881 " /><path d="M-48, -3.34119 L-48, -3.26597  L-48, -3.04409  L-48, -2.68668  L-48, -2.21166  L-48, -1.64284  L-48, -1.00875  L-48, -0.341187  L-48, 0.326375  L-48, 0.960464  L-48, 1.52928  L-48, 2.00431  L-48, 2.36172  L-48, 2.5836  L-48, 2.65881 " /><path id= "4" d=" M -40.0451 -11.0989 L -37.9365 10.7999 " />
<path id= "5" d=" M -38.0543 -11.2905 L -40.0451 -11.0989 " />
<path id= "6" d=" M -38.0543 -11.2905 L -35.9457 10.6082 " />
<path id= "7" d=" M -35.9457 10.6082 L -37.9365 10.7999 " />
<path id= "8" d=" M -17 9.65881 L -36.0371 9.65881 " />
<path id= "9" d=" M -37 -10.3412 L -37 -0.341187 " />
<path id= "10" d=" M -17 -10.3412 L -37 -10.3412 " />
<path id= "11" d=" M -17 -15.3412 L -17 19.6588 " />
<path id= "12" d=" M -15 -15.3412 L -17 -15.3412 " />
<path id= "13" d=" M -15 -15.3412 L -15 6.87603 " />
<path id= "14" d=" M -15 11.0542 L -15 19.6588 " />
<path id= "15" d=" M -15 19.6588 L -17 19.6588 " />
<path d="M-15, -15.3412 L-15, -30.2277 " /><path d="M-15, 11.0542 L-15, 9.65881 " /><path d="M-15, 9.65881 L-15, 6.87603 " /><path d="M-15, 29.6588 L-15, 19.6588 " /><path d="M0, 14.6588 L0, -20.3412 " /><path d="M0, -20.3412 Q-8.44967, -22.4684 -15, -30.2277 " /><path d="M0, 14.6588 Q-8.44967, 19.0535 -15, 9.65881 " /><path d="M0, 27.6588 Q-8.44967, 30.2277 -15, 29.6588 " /><path d="M0, 27.6588 L0, 14.6588 " /></g>

</svg>