<?xml version="1.0" encoding="UTF-8" standalone="no"?>
<svg xmlns="http://www.w3.org/2000/svg" version="1.1">
<g   fill="none"
   stroke="rgb(0, 0, 0)"
   stroke-linecap="butt"
   stroke-linejoin="miter"
   stroke-width="1.0"
   transform="scale(1, -1)"
  >
<path id= "1" d=" M 40.4828 -3.5 L 48 -3.5 " />
<path id= "2" d=" M 40.4828 3.5 L 48 3.5 " />
<path id= "3" d=" M 37 -3.5 L 37.5406 -3.5 " />
<path id= "4" d=" M 37 3.5 L 37.5406 3.5 " />
</g>
<g   fill="none"
   stroke="rgb(0, 0, 0)"
   stroke-linecap="butt"
   stroke-linejoin="miter"
   stroke-width="1.0"
   transform="scale(1, -1)"
  >
<path d="M0, 7.5 Q7.09376, 12.8191 15, 15.5 " /><path d="M0, -7.5 Q7.09376, -12.8191 15, -15.5 " /><path id= "3" d=" M 13 15.5 L 13 14.7746 " />
<path id= "4" d=" M 13 15.5 L 15 15.5 " />
<path d="M15, 15.5 L15, 0 " /><path d="M15, 0 L15, -15.5 " /><path d="M0, 7.5 L0, 0 " /><path d="M0, 0 Q7.09376, 0 15, 0 " /><path d="M0, 0 L0, -7.5 " /><path id= "10" d=" M 13 -15.5 L 15 -15.5 " />
<path id= "11" d=" M 13 -14.7746 L 13 -15.5 " />
<path id= "12" d=" M 15 -11.5 L 36 -11.5 " />
<path id= "13" d=" M 15 11.5 L 36 11.5 " />
<path id= "14" d=" M 36 11.5 L 36 -11.5 " />
<path id= "15" d=" M 36 13 L 36 11.5 " />
<path id= "16" d=" M 36 -11.5 L 36 -13 " />
<path id= "17" d=" M 36 13 L 38.492 13 " />
<path id= "18" d=" M 38.492 13 L 40.4828 13 " />
<path id= "19" d=" M 40.4828 13 L 40.4828 -13 " />
<path id= "20" d=" M 36 -13 L 38.492 -13 " />
<path id= "21" d=" M 38.492 -13 L 40.4828 -13 " />
<path id= "22" d=" M 38.492 13 L 38.492 -13 " />
<path d="M37.8776, 0 L37.8755, -0.391876  L37.8692, -0.778823  L37.8587, -1.15598  L37.8443, -1.51859  L37.826, -1.86211  L37.8041, -2.18221  L37.7789, -2.47487  L37.7507, -2.73641  L37.7199, -2.96353  L37.6868, -3.15339  L37.6519, -3.30359  L37.6156, -3.41225  L37.5784, -3.47799  L37.5406, -3.5 " /><path d="M37.5406, 3.5 Q37.5595, 3.489 37.5784, 3.47799  Q37.597, 3.44512 37.6156, 3.41225  Q37.6338, 3.35792 37.6519, 3.30359  Q37.6694, 3.22849 37.6868, 3.15339  Q37.7034, 3.05846 37.7199, 2.96353  Q37.7353, 2.84997 37.7507, 2.73641  Q37.7648, 2.60564 37.7789, 2.47487  Q37.7915, 2.32854 37.8041, 2.18221  Q37.815, 2.02216 37.826, 1.86211  Q37.8351, 1.69035 37.8443, 1.51859  Q37.8515, 1.33728 37.8587, 1.15598  Q37.864, 0.9674 37.8692, 0.778823  Q37.8767, 0.393258 37.8776, 8.32667e-16 " /><path d="M48, 0 L48, -0.391876  L48, -0.778823  L48, -1.15598  L48, -1.51859  L48, -1.86211  L48, -2.18221  L48, -2.47487  L48, -2.73641  L48, -2.96353  L48, -3.15339  L48, -3.30359  L48, -3.41225  L48, -3.47799  L48, -3.5 " /><path d="M48, 3.5 Q48, 3.489 48, 3.47799  Q48, 3.44512 48, 3.41225  Q48, 3.35792 48, 3.30359  Q48, 3.22849 48, 3.15339  Q48, 3.05846 48, 2.96353  Q48, 2.84997 48, 2.73641  Q48, 2.60564 48, 2.47487  Q48, 2.32854 48, 2.18221  Q48, 2.02216 48, 1.86211  Q48, 1.69035 48, 1.51859  Q48, 1.33728 48, 1.15598  Q48, 0.9674 48, 0.778823  Q48, 0.393258 48, 8.32667e-16 " /><path d="M37, 0 L37, -0.391876  L37, -0.778823  L37, -1.15598  L37, -1.51859  L37, -1.86211  L37, -2.18221  L37, -2.47487  L37, -2.73641  L37, -2.96353  L37, -3.15339  L37, -3.30359  L37, -3.41225  L37, -3.47799  L37, -3.5 " /><path d="M37, 3.5 Q37, 3.489 37, 3.47799  Q37, 3.44512 37, 3.41225  Q37, 3.35792 37, 3.30359  Q37, 3.22849 37, 3.15339  Q37, 3.05846 37, 2.96353  Q37, 2.84997 37, 2.73641  Q37, 2.60564 37, 2.47487  Q37, 2.32854 37, 2.18221  Q37, 2.02216 37, 1.86211  Q37, 1.69035 37, 1.51859  Q37, 1.33728 37, 1.15598  Q37, 0.9674 37, 0.778823  Q37, 0.393258 37, 8.32667e-16 " /></g>

</svg>