<?xml version="1.0" encoding="UTF-8" standalone="no"?>
<svg xmlns="http://www.w3.org/2000/svg" version="1.1">
<g   fill="none"
   stroke="rgb(0, 0, 0)"
   stroke-linecap="butt"
   stroke-linejoin="miter"
   stroke-width="1.0"
   transform="scale(1, -1)"
  >
<path d="M29.7619, 1.11022e-16 C29.3866, 0.340023 28.8972, 0.807963 28.3608, 1.33622  C27.8537, 1.83534 27.3119, 2.37927 26.7634, 2.93417  C26.2133, 3.49116 25.6588, 4.05576 25.0997, 4.62796  C23.2919, 6.47806 21.4735, 8.35498 19.6588, 10.229 " /><path d="M16.0117, 14 L15.3077, 14.7285 " /><path d="M15.3077, -14.7285 L16.0117, -14 " /><path d="M19.6588, -10.229 C21.0778, -8.7625 22.4957, -7.30112 23.9127, -5.84485  C24.782, -4.95221 25.6519, -4.0613 26.5088, -3.19203  C26.9581, -2.73601 27.3982, -2.293 27.8291, -1.86299  C28.2576, -1.43598 28.6713, -1.02893 29.0409, -0.674842  C29.3107, -0.416242 29.5511, -0.191294 29.7619, 0 " /></g>
<g   fill="none"
   stroke="rgb(0, 0, 0)"
   stroke-linecap="butt"
   stroke-linejoin="miter"
   stroke-width="1.0"
   transform="scale(1, -1)"
  >
<circle cx ="-0.341187" cy ="0" r ="3" /><path id= "2" d=" M -11.0989 -11 L -11.0989 11 " />
<path id= "3" d=" M -11.0989 11 L 10.7999 11 " />
<path id= "4" d=" M -11.0989 -11 L 10.7999 -11 " />
<path id= "5" d=" M 10.7999 -11 L 10.7999 11 " />
<path id= "6" d=" M -11.2905 -11 L -11.0989 -11 " />
<path id= "7" d=" M -11.2905 11 L -11.0989 11 " />
<path id= "8" d=" M -11.2905 -11 L -11.2905 11 " />
<path id= "9" d=" M -15.3412 -14 L -15.3412 14 " />
<path id= "10" d=" M -15.3412 14 L 19.6588 14 " />
<path id= "11" d=" M -15.3412 -14 L 19.6588 -14 " />
<path id= "12" d=" M 19.6588 -14 L 19.6588 14 " />
<path d="M-30.2277, 0 L-15.3412, 5.61698 " /><path d="M-15.3412, -5.61698 L-30.2277, -1.77636e-15 " /><path d="M6.87603, 14 L9.65881, 15.05 " /><path d="M9.65881, 15.05 L11.0542, 14 " /><path d="M11.0542, -14 L9.65881, -15.05 " /><path d="M9.65881, -15.05 L6.87603, -14 " /><path d="M19.6588, 7.525 L29.6588, 0 " /><path d="M29.6588, 0 L19.6588, -7.525 " /><path d="M15.3077, -14.7285 Q13.8659, -16.2207 9.65881, -15.05 " /><path d="M15.3077, 14.7285 Q13.8659, 16.2207 9.65881, 15.05 " /><path d="M29.7619, 0 Q29.7619, 0 29.6588, 0 " /></g>

</svg>