<?xml version="1.0" encoding="UTF-8" standalone="no"?>
<svg xmlns="http://www.w3.org/2000/svg" version="1.1">
<g   fill="none"
   stroke="rgb(0, 0, 0)"
   stroke-linecap="butt"
   stroke-linejoin="miter"
   stroke-width="1.0"
   transform="scale(1, -1)"
  >
<path d="M-17.2713, 6.74741 C-15.9749, 4.72689 -14.6605, 2.6536 -13.2748, 0.412018  C-13.1816, 0.260981 -13.0884, 0.109945 -12.9953, -0.0410916 " /><path id= "2" d=" M 3.5 41.3273 L 3.5 46.0504 " />
<path id= "3" d=" M -3.5 41.7831 L -3.5 46.0504 " />
</g>
<g   fill="none"
   stroke="rgb(0, 0, 0)"
   stroke-linecap="butt"
   stroke-linejoin="miter"
   stroke-width="1.0"
   transform="scale(1, -1)"
  >
<path id= "1" d=" M 20.9323 19.9033 L 20.9323 28.5378 " />
<path id= "2" d=" M 20.9323 28.5378 L 11.0874 30.4734 " />
<path id= "3" d=" M 11.0874 21.839 L 11.0874 30.4734 " />
<path id= "4" d=" M 20.9323 19.9033 L 16.9234 20.6915 " />
<path id= "5" d=" M 15.4446 20.9823 L 11.0874 21.839 " />
<path id= "6" d=" M 20.9323 19.9033 L 15.8869 17.8611 " />
<path id= "7" d=" M 11.0874 30.4734 L 4.22601 27.6961 " />
<path id= "8" d=" M 11.0874 21.839 L 4.22601 19.0617 " />
<path id= "9" d=" M 4.22601 19.0617 L 4.22601 27.6961 " />
<path d="M15.4446, 20.9823 L17.1534, 21.334 " /><path id= "11" d=" M 5.19227 18.8717 L 4.22601 19.0617 " />
<path d="M5.19227, 18.8717 L15.4446, 20.9823 " /><path d="M10.292, 4.16598 Q13.995, 12.4705 17.1534, 21.334 " /><path d="M10.292, 4.16598 L0.435273, -3.52421 " /><path d="M-11.8708, -1.10466 Q-14.753, 2.82398 -17.2713, 6.74741 " /><path d="M-17.2713, 6.74741 Q-19.4138, 10.0852 -21.293, 13.4193 " /><path d="M-21.293, 13.4193 L-15.5752, 14.5964 " /><path d="M4.72798, 16.7003 L-12.3766, 13.1861 " /><path d="M4.72798, 16.7003 Q4.52351, 17.6973 4.33791, 18.6958 " /><path d="M4.33791, 18.6958 L5.19227, 18.8717 " /><path d="M-11.8708, -1.10466 L10.292, 4.16598 " /><path id= "22" d=" M 21.293 15.3622 L 18.0114 16.0074 " />
<path id= "23" d=" M 18.0114 16.0074 L 15.3837 16.524 " />
<path id= "24" d=" M 21.293 13.4434 L 14.6983 14.74 " />
<path id= "25" d=" M 21.293 13.4434 L 21.293 15.3622 " />
<path id= "26" d=" M 21.293 13.4434 L 12.8 10.0057 " />
<path d="M0.435273, -3.52421 L-10.292, -4.16598 " /><path d="M-10.292, -4.16598 Q-11.682, -2.17399 -12.9953, -0.0410916 " /><path d="M-10.292, -4.16598 L-11.8708, -1.10466 " /><path id= "30" d=" M -15.5752 13.815 L -15.5752 15.7337 " />
<path id= "31" d=" M -12.3766 13.1861 L -15.5752 13.815 " />
<path id= "32" d=" M 4.72798 16.7003 L -4.13964 18.4438 " />
<path id= "33" d=" M -4.13964 18.4438 L -15.5752 13.815 " />
<path id= "34" d=" M 4.33791 18.6958 L -0.858011 19.7174 " />
<path id= "35" d=" M -0.858011 19.7174 L -4.13964 20.3626 " />
<path id= "36" d=" M -4.13964 18.4438 L -4.13964 20.3626 " />
<path id= "37" d=" M 18.0114 16.0074 L 18.0114 18.721 " />
<path id= "38" d=" M 18.0114 29.1121 L 18.0114 36.1544 " />
<path id= "39" d=" M 18.0114 36.1544 L -0.858011 39.8644 " />
<path id= "40" d=" M -0.858011 19.7174 L -0.858011 39.8644 " />
<path id= "41" d=" M -6.5758 19.3765 L -6.5758 31.7937 " />
<path id= "42" d=" M -6.5758 31.7937 L -12.2936 29.4793 " />
<path id= "43" d=" M -12.2936 17.0621 L -12.2936 29.4793 " />
<path id= "44" d=" M -14.0089 16.3677 L -14.0089 34.5412 " />
<path id= "45" d=" M -0.858011 39.8644 L -14.0089 34.5412 " />
<path id= "46" d=" M -4.13964 20.3626 L -15.5752 15.7337 " />
<path id= "47" d=" M 19.8138 36.1439 L 19.9234 38.0982 " />
<path id= "48" d=" M 19.9234 38.0982 L -1.40724 42.2921 " />
<path id= "49" d=" M -1.51684 40.3378 L -1.40724 42.2921 " />
<path id= "50" d=" M 19.8138 36.1439 L -1.51684 40.3378 " />
<path id= "51" d=" M 19.8138 36.1439 L 18.0114 35.7056 " />
<path id= "52" d=" M -1.40724 42.2921 L -16.205 38.6931 " />
<path id= "53" d=" M -1.51684 40.3378 L -16.3146 36.7388 " />
<path id= "54" d=" M -16.3146 36.7388 L -16.205 38.6931 " />
<path id= "55" d=" M -11.1086 35.7152 L -16.3146 36.7388 " />
<path d="M-3.5 46.0504 A3.5 0.987378 1.6576e-15 0 0 3.5 46.0504" />
</g>

</svg>