<?xml version="1.0" encoding="UTF-8" standalone="no"?>
<svg xmlns="http://www.w3.org/2000/svg" version="1.1">
<g   fill="none"
   stroke="rgb(0, 0, 0)"
   stroke-linecap="butt"
   stroke-linejoin="miter"
   stroke-width="1.0"
   transform="scale(1, -1)"
  >
<path id= "1" d=" M -3.5 -39.4982 L -3.5 -47.604 " />
<path id= "2" d=" M 3.5 -38.949 L 3.5 -47.604 " />
</g>
<g   fill="none"
   stroke="rgb(0, 0, 0)"
   stroke-linecap="butt"
   stroke-linejoin="miter"
   stroke-width="1.0"
   transform="scale(1, -1)"
  >
<path id= "1" d=" M 26.4254 -16.2904 L 26.4254 -25.2161 " />
<path id= "2" d=" M 26.4254 -25.2161 L 19.5848 -26.48 " />
<path id= "3" d=" M 26.4254 -16.2904 L 18.8797 -15.6193 " />
<path id= "4" d=" M 26.4254 -25.2161 L 18.8797 -24.545 " />
<path id= "5" d=" M 19.5848 -26.48 L 18.8797 -26.4172 " />
<path d="M14.789, -1.31531 Q19.7914, -8.37419 24.102, -16.0837 " /><path d="M2.50519, -11.3056 Q2.64668, -12.2664 2.76419, -13.2412 " /><path d="M2.76419, -13.2412 L-3.48842, -12.1477 " /><path d="M-3.94075, 1.52062 Q-2.30278, -4.83041 -3.48842, -12.1477 " /><path d="M14.789, -1.31531 L-3.94075, 1.52062 " /><path d="M-21.1599, -15.4126 L-13.1284, -15.7029 " /><path id= "12" d=" M 21.1599 -14.3399 L 18.8797 -14.7612 " />
<path id= "13" d=" M 21.1599 -12.3564 L 21.1599 -14.3399 " />
<path id= "14" d=" M 4.72769 -10.8949 L 2.50519 -11.3056 " />
<path id= "15" d=" M 21.1599 -12.3564 L 4.72769 -10.8949 " />
<path id= "16" d=" M 4.72769 -12.8784 L 2.76419 -13.2412 " />
<path id= "17" d=" M 4.72769 -10.8949 L 4.72769 -12.8784 " />
<path d="M-3.48842, -12.1477 L-24.6483, -12.6841 " /><path d="M-24.6483, -12.6841 L-21.1599, -15.4126 " /><path id= "20" d=" M -0.0173346 -13.0805 L -13.1284 -15.5028 " />
<path id= "21" d=" M 2.4475 -13.2997 L -0.0173346 -13.0805 " />
<path id= "22" d=" M 2.76419 -13.2412 L 2.4475 -13.2997 " />
<path d="M-3.94075, 1.52062 L-14.789, 1.31531 " /><path d="M-14.789, 1.31531 Q-20.11, -5.24669 -24.6483, -12.6841 " /><path id= "25" d=" M 18.8797 -14.7612 L 18.8797 -35.5488 " />
<path id= "26" d=" M 18.8797 -14.7612 L 3.77268 -13.4176 " />
<path d="M3.77268, -13.4176 L2.76419, -13.2412 " /><path id= "28" d=" M 21.1599 -14.3399 L 4.72769 -12.8784 " />
<path id= "29" d=" M -13.1284 -15.5028 L -13.1284 -36.3296 " />
<path id= "30" d=" M -5.64342 -36.9953 L -13.1284 -36.3296 " />
<path id= "31" d=" M -0.0173346 -13.0805 L -0.0173346 -33.9072 " />
<path id= "32" d=" M -0.0173346 -33.9072 L -13.1284 -36.3296 " />
<path id= "33" d=" M 3.77268 -13.4176 L 2.4475 -13.2997 " />
<path id= "34" d=" M 18.5429 -35.558 L -0.0173346 -33.9072 " />
<path id= "35" d=" M 14.7717 -29.2721 L 8.19878 -28.6875 " />
<path id= "36" d=" M 8.19878 -20.7535 L 8.19878 -28.6875 " />
<path id= "37" d=" M 14.7717 -21.3381 L 8.19878 -20.7535 " />
<path id= "38" d=" M 14.7717 -21.3381 L 14.7717 -29.2721 " />
<path id= "39" d=" M 14.7717 -21.3381 L 14.2016 -21.4434 " />
<path id= "40" d=" M 14.2016 -21.4434 L 8.19878 -20.9095 " />
<path id= "41" d=" M 14.2016 -21.4434 L 14.2016 -29.2214 " />
<path id= "42" d=" M 20.5564 -35.503 L 20.7139 -37.4914 " />
<path id= "43" d=" M 20.7139 -37.4914 L 5.89265 -40.2297 " />
<path id= "44" d=" M 20.5564 -35.503 L -0.707139 -36.0833 " />
<path id= "45" d=" M -0.707139 -36.0833 L -0.549643 -38.0717 " />
<path id= "46" d=" M 20.7139 -37.4914 L -0.549643 -38.0717 " />
<path id= "47" d=" M 5.89265 -40.2297 L 3.5 -40.295 " />
<path id= "48" d=" M -3.5 -40.486 L -15.3709 -40.81 " />
<path id= "49" d=" M -0.549643 -38.0717 L -15.3709 -40.81 " />
<path d="M-2.87564, -39.3021 C-3.0767, -39.3393 -3.23378, -39.3753 -3.34026, -39.4086  C-3.44517, -39.4417 -3.49917, -39.472 -3.5, -39.4982 " /><path d="M3.5, -38.949 L3.44278, -38.907  L3.27298, -38.8753  L2.99617, -38.8551  L2.62139, -38.8469  L2.16089, -38.851  L1.62973, -38.8673  L1.04529, -38.8952  L0.426667, -38.9339  L-0.205907, -38.9821  L-0.831748, -39.0381  L-1.43039, -39.1002  L-1.98227, -39.1664  L-2.46932, -39.2344  L-2.87564, -39.3021 " /><path id= "52" d=" M -15.5284 -38.8216 L -15.3709 -40.81 " />
<path id= "53" d=" M -0.707139 -36.0833 L -15.5284 -38.8216 " />
<path d="M-2.87564 -47.3482 A3.5 0.448654 180 0 1 -3.5 -47.604" />
<path d="M-3.5 -47.604 A3.5 0.448654 180 0 1 3.5 -47.604" />
<path d="M3.5 -47.604 A3.5 0.448654 180 0 1 -2.87564 -47.3482" />
<path d="M-2.87564 -36.439 A3.5 0.448654 180 0 1 -3.37599 -36.5764" />
<path d="M-2.04688 -36.3308 A3.5 0.448654 180 0 1 -2.87564 -36.439" />
<path d="M-1.23242 -47.4944 A1.5 0.19228 180 0 1 -1.5 -47.604" />
<path d="M-1.5 -47.604 A1.5 0.19228 180 0 1 1.5 -47.604" />
<path d="M1.5 -47.604 A1.5 0.19228 180 0 1 -1.23242 -47.4944" />
</g>

</svg>