<?xml version="1.0" encoding="UTF-8" standalone="no"?>
<svg xmlns="http://www.w3.org/2000/svg" version="1.1">
<g   fill="none"
   stroke="rgb(0, 0, 0)"
   stroke-linecap="butt"
   stroke-linejoin="miter"
   stroke-width="1.0"
   transform="scale(1, -1)"
  >
<path d="M1.85621, -2.88105 C-1.86477, -4.82279 -5.43319, -7.04276 -8.90107, -9.32055  C-11.466, -11.0087 -13.9714, -12.7327 -16.4285, -14.4551 " /><path d="M-21.336, 10.7805 C-20.0407, 12.3406 -18.7859, 13.9492 -17.5573, 15.5751 " /><path d="M-17.709, -14.9192 C-19.605, -13.087 -21.5449, -11.2302 -23.6295, -9.33122  C-25.0543, -8.03775 -26.5489, -6.71699 -28.1916, -5.41401  C-29.0966, -4.69833 -30.0479, -3.98952 -31.0586, -3.32511 " /></g>
<g   fill="none"
   stroke="rgb(0, 0, 0)"
   stroke-linecap="butt"
   stroke-linejoin="miter"
   stroke-width="1.0"
   transform="scale(1, -1)"
  >
<path d="M-32.9477 11.3713 A3 2.17054 68.9017 0 0 -32.6943 12.7366" />
<path d="M-32.6943 10.1446 A3 2.17054 68.9017 0 0 -32.9477 11.3713" />
<path id= "3" d=" M -17.2999 22.6762 L -32.6943 17.5711 " />
<path id= "4" d=" M -32.6943 -3.23596 L -32.6943 17.5711 " />
<path id= "5" d=" M -15.8711 22.2217 L -17.2999 22.6762 " />
<path id= "6" d=" M -15.8711 20.7971 L -15.8711 22.2217 " />
<path id= "7" d=" M -15.8711 22.2217 L -31.2655 17.1165 " />
<path id= "8" d=" M -31.2655 17.1165 L -32.6943 17.5711 " />
<path id= "9" d=" M -30.7608 -3.52319 L -31.2655 -3.69055 " />
<path id= "10" d=" M -31.2655 -3.69055 L -32.6943 -3.23596 " />
<path id= "11" d=" M -31.2655 -3.69055 L -31.2655 -3.18921 " />
<path id= "12" d=" M -31.2655 -1.17252 L -31.2655 17.1165 " />
<path id= "13" d=" M -30.5981 16.392 L -30.5981 -0.369128 " />
<path id= "14" d=" M -23.5683 18.7233 L -30.5981 16.392 " />
<path id= "15" d=" M -24.0756 13.8754 L -30.5981 16.392 " />
<path id= "16" d=" M -15.9184 20.8153 L -23.5683 18.7233 " />
<path id= "17" d=" M -8.7757 18.0594 L -15.9184 20.8153 " />
<path id= "18" d=" M 0.787323 20.6746 L -16.7411 15.8811 " />
<path id= "19" d=" M -17.4618 15.684 L -25.9875 13.3525 " />
<path id= "20" d=" M -25.9875 -13.1291 L -25.9875 -7.23963 " />
<path id= "21" d=" M -25.9875 5.18111 L -25.9875 13.3525 " />
<path id= "22" d=" M 2.07539 20.1776 L 0.787323 20.6746 " />
<path id= "23" d=" M 2.07539 -6.30408 L 2.07539 -2.76691 " />
<path id= "24" d=" M 2.07539 12.2491 L 2.07539 20.1776 " />
<path id= "25" d=" M 2.07539 20.1776 L -14.9207 15.5297 " />
<path id= "26" d=" M -18.2934 14.6074 L -24.6994 12.8556 " />
<path id= "27" d=" M -24.6994 12.8556 L -25.9875 13.3525 " />
<path id= "28" d=" M 2.07539 -6.30408 L -8.86263 -9.29526 " />
<path id= "29" d=" M -20.3088 -12.4254 L -24.6994 -13.6261 " />
<path id= "30" d=" M -24.6994 -13.6261 L -25.9875 -13.1291 " />
<path id= "31" d=" M -24.6994 -13.6261 L -24.6994 -8.36806 " />
<path id= "32" d=" M -24.6994 6.73168 L -24.6994 12.8556 " />
<path d="M13.4635, 10.051 L2.07539, 12.2491 " /><path d="M2.07539, 12.2491 L-14.9207, 15.5297 " /><path d="M-14.9207, 15.5297 L-17.0495, 15.9406 " /><path d="M-21.336, 10.7805 L-24.6994, 6.73168 " /><path d="M-24.6994, 6.73168 L-32.3494, -2.47727 " /><path d="M-32.3494, -2.47727 L-31.0586, -3.32511 " /><path d="M-11.2139, -9.68704 L1.85621, -2.88105 " /><path d="M1.85621, -2.88105 L15.5609, 4.25538 " /><path d="M15.5609, 4.25538 Q11.7464, 6.80007 13.4635, 10.051 " /><path d="M-11.2139, -9.68704 Q-14.7953, -13.3098 -16.4285, -14.4551 " /><path d="M-16.4285, -14.4551 Q-17.449, -15.1707 -17.709, -14.9192 " /><path d="M15.5609, 4.25538 L-11.2139, 3.55379 " /><path d="M-11.2139, 3.55379 Q-19.0566, 13.5901 -17.5573, 15.5751 " /><path d="M-17.5573, 15.5751 Q-17.3735, 15.8183 -17.0495, 15.9406 " /><path d="M-11.2139, 3.55379 L-21.1589, -5.78623 " /><path d="M-21.1589, -5.78623 Q-28.5659, -4.22397 -32.3494, -2.47727 " /><path d="M-21.1589, -5.78623 L-11.2139, -9.68704 " /></g>

</svg>