<?xml version="1.0" encoding="UTF-8" standalone="no"?>
<svg xmlns="http://www.w3.org/2000/svg" version="1.1">
<g   fill="none"
   stroke="rgb(0, 0, 0)"
   stroke-linecap="butt"
   stroke-linejoin="miter"
   stroke-width="1.0"
   transform="scale(1, -1)"
  >
<path id= "1" d=" M 36.8251 -0.491358 L 44.9356 0.136786 " />
<path id= "2" d=" M 36.0903 5.4697 L 44.4723 6.11887 " />
</g>
<g   fill="none"
   stroke="rgb(0, 0, 0)"
   stroke-linecap="butt"
   stroke-linejoin="miter"
   stroke-width="1.0"
   transform="scale(1, -1)"
  >
<path d="M35.23, 3.12593 L35.2695, 2.74522  L35.3269, 2.36003  L35.4011, 1.97685  L35.4909, 1.60211  L35.5949, 1.24212  L35.7112, 0.902934  L35.838, 0.590245  L35.973, 0.309315  L36.114, 0.0648639  L36.2587, -0.138997  L36.4046, -0.298841  L36.5492, -0.411981  L36.6902, -0.476515  L36.8251, -0.491358 " /><path d="M36.0903 5.4697 A3 1.07087 -85.5714 0 1 35.23 3.12593" />
<path d="M44.7039 6.06839 A3 1.07087 -85.5714 0 1 44.4723 6.11887" />
<path d="M44.4723 6.11887 A3 1.07087 -85.5714 0 1 44.9356 0.136786" />
<path d="M44.9356 0.136786 A3 1.07087 -85.5714 0 1 44.7039 6.06839" />
<path id= "6" d=" M 41.3012 -10.0196 L 33.2894 -5.96138 " />
<path id= "7" d=" M 33.2894 -5.96138 L 31.3256 15.3514 " />
<path id= "8" d=" M 41.3012 -10.0196 L 40.3977 -0.214666 " />
<path id= "9" d=" M 39.8471 5.76066 L 39.3373 11.2931 " />
<path id= "10" d=" M 39.3373 11.2931 L 31.3256 15.3514 " />
<path id= "11" d=" M 39.4471 -10.3511 L 41.3012 -10.0196 " />
<path id= "12" d=" M 31.4353 -6.29287 L 33.2894 -5.96138 " />
<path id= "13" d=" M 39.4471 -10.3511 L 31.4353 -6.29287 " />
<path id= "14" d=" M 31.4353 -6.29287 L 29.4715 15.0199 " />
<path id= "15" d=" M 29.4715 15.0199 L 31.3256 15.3514 " />
<path id= "16" d=" M 19.4744 -10.7548 L 37.4894 -9.35951 " />
<path id= "17" d=" M 12.1909 12.5383 L 29.5761 13.8848 " />
<path id= "18" d=" M 30.8176 -5.62283 L 30.8176 0.411252 " />
<path id= "19" d=" M 12.1909 -7.06544 L 30.8176 -5.62283 " />
<path id= "20" d=" M 12.1909 -7.06544 L 12.1909 12.5383 " />
<path id= "21" d=" M 31.1817 -3.54102 L 31.1817 -4.82711 " />
<path id= "22" d=" M 31.306 -4.89007 L 31.1817 -4.82711 " />
<path id= "23" d=" M 31.4008 -5.91825 L 30.8176 -5.62283 " />
<path id= "24" d=" M 19.4744 -10.7548 L 12.1909 -7.06544 " />
<path id= "25" d=" M 20.931 -16.3936 L 10.7342 -11.2285 " />
<path id= "26" d=" M 10.7342 -11.2285 L 10.7342 23.0781 " />
<path id= "27" d=" M 20.931 -16.3936 L 20.931 -10.6419 " />
<path id= "28" d=" M 20.931 13.2152 L 20.931 17.913 " />
<path id= "29" d=" M 20.931 17.913 L 10.7342 23.0781 " />
<path id= "30" d=" M 19.0684 -16.5378 L 20.931 -16.3936 " />
<path id= "31" d=" M 8.87157 -11.3728 L 10.7342 -11.2285 " />
<path id= "32" d=" M 19.0684 -16.5378 L 16.0155 -14.9914 " />
<path id= "33" d=" M 16.0155 -14.9914 L 11.9244 -12.9192 " />
<path id= "34" d=" M 11.9244 -12.9192 L 8.87157 -11.3728 " />
<path id= "35" d=" M 8.87157 -11.3728 L 8.87157 10.4043 " />
<path id= "36" d=" M 8.87157 10.4043 L 8.87157 14.4996 " />
<path id= "37" d=" M 8.87157 14.4996 L 8.87157 22.9338 " />
<path id= "38" d=" M 8.87157 22.9338 L 10.7342 23.0781 " />
<path d="M13.97, -28.5469 L11.9244, -12.9192 " /><path d="M16.0155, -14.9914 L13.97, -28.5469 " /><path d="M8.87157, 10.4043 L8.48919, 13.3256 " /><path d="M8.48919, 13.3256 L8.87157, 14.4996 " /><path d="M11.5337, 22.6731 L13.97, 30.1532 " /><path d="M13.97, 30.1532 L16.4063, 20.205 " /><path d="M0, -19.9382 Q7.86944, -21.4138 13.97, -28.5469 " /><path d="M4.44089e-16, -19.9382 L-2.5492, 15.6597 " /><path d="M-2.5492, 15.6597 Q1.43664, 22.5439 8.48919, 13.3256 " /><path d="M-2.5492, 15.6597 L-4.44089e-16, 27.1109 " /><path d="M0, 27.1109 Q7.86944, 30.2383 13.97, 30.1532 " /></g>

</svg>