<?xml version="1.0" encoding="UTF-8" standalone="no"?>
<svg xmlns="http://www.w3.org/2000/svg" version="1.1">
<g   fill="none"
   stroke="rgb(0, 0, 0)"
   stroke-linecap="butt"
   stroke-linejoin="miter"
   stroke-width="1.0"
   transform="scale(1, -1)"
  >
<path id= "1" d=" M 25.2099 -12.478 L 31.2737 -14.7843 " />
<path id= "2" d=" M 27.5198 -6.93717 L 33.4067 -9.1762 " />
<path d="M-4.48982, -10.835 Q-4.95698, -13.925 -5.53189, -17.0132 " /><path d="M-0.239051, -24.7723 C-0.404451, -24.611 -0.591698, -24.4306 -0.800791, -24.2311  C-1.27103, -23.7825 -1.80795, -23.2785 -2.36263, -22.7614  C-3.34066, -21.8499 -4.38149, -20.8899 -5.43681, -19.9196 " /></g>
<g   fill="none"
   stroke="rgb(0, 0, 0)"
   stroke-linecap="butt"
   stroke-linejoin="miter"
   stroke-width="1.0"
   transform="scale(1, -1)"
  >
<path d="M24.0607 -10.4646 A3 2.0793 -110.824 0 1 25.2099 -12.478" />
<path d="M27.5198, -6.93717 L27.2288, -6.86269  L26.9164, -6.85168  L26.5898, -6.9044  L26.2562, -7.01964  L25.9232, -7.19481  L25.5984, -7.42596  L25.2889, -7.70788  L25.0019, -8.0342  L24.7438, -8.39756  L24.5204, -8.78977  L24.3367, -9.20198  L24.197, -9.62489  L24.1043, -10.049  L24.0607, -10.4646 " /><path d="M32.3402 -14.7941 A3 2.0793 -110.824 0 1 33.4067 -9.1762" />
<path d="M33.4067 -9.1762 A3 2.0793 -110.824 0 1 31.2737 -14.7843" />
<path d="M31.2737 -14.7843 A3 2.0793 -110.824 0 1 32.3402 -14.7941" />
<path id= "6" d=" M 18.8521 -2.42173 L 35.1091 2.71846 " />
<path id= "7" d=" M 35.1091 2.71846 L 34.2139 -9.88385 " />
<path id= "8" d=" M 33.9655 -13.38 L 33.6884 -17.281 " />
<path id= "9" d=" M 18.8521 -2.42173 L 17.4314 -22.4212 " />
<path id= "10" d=" M 17.4314 -22.4212 L 33.6884 -17.281 " />
<path id= "11" d=" M 17.5108 -1.73179 L 18.8521 -2.42173 " />
<path id= "12" d=" M 33.7678 3.4084 L 35.1091 2.71846 " />
<path id= "13" d=" M 17.5108 -1.73179 L 33.7678 3.4084 " />
<path id= "14" d=" M 17.5108 -1.73179 L 16.0901 -21.7313 " />
<path id= "15" d=" M 16.0901 -21.7313 L 17.4314 -22.4212 " />
<path id= "16" d=" M 4.06428 -15.7522 L 16.1873 -20.3631 " />
<path id= "17" d=" M 4.06428 3.00669 L 17.4848 -2.09765 " />
<path id= "18" d=" M 4.06428 3.00669 L 4.06428 -15.7522 " />
<path id= "19" d=" M 18.8434 7.67959 L 31.7504 2.77055 " />
<path id= "20" d=" M 4.06428 3.00669 L 18.8434 7.67959 " />
<path id= "21" d=" M 1.10846 6.76184 L 21.7992 13.3039 " />
<path id= "22" d=" M 21.7992 13.3039 L 21.7992 6.55537 " />
<path id= "23" d=" M 1.10846 6.76184 L 1.10846 -26.0663 " />
<path id= "24" d=" M 1.10846 -26.0663 L 16.1193 -21.3201 " />
<path id= "25" d=" M -0.239051 7.27435 L 1.10846 6.76184 " />
<path id= "26" d=" M 20.4517 13.8164 L 21.7992 13.3039 " />
<path id= "27" d=" M -0.239051 7.27435 L 5.95562 9.233 " />
<path id= "28" d=" M 5.95562 9.233 L 14.257 11.8578 " />
<path id= "29" d=" M 14.257 11.8578 L 20.4517 13.8164 " />
<path id= "30" d=" M -0.239051 7.27435 L -0.239051 -13.5642 " />
<path id= "31" d=" M -0.239051 -13.5642 L -0.239051 -17.4831 " />
<path id= "32" d=" M -0.239051 -17.4831 L -0.239051 -25.5538 " />
<path id= "33" d=" M -0.239051 -25.5538 L 1.10846 -26.0663 " />
<path d="M10.1063, 24.5081 L14.257, 11.8578 " /><path d="M5.95562, 9.233 L10.1063, 24.5081 " /><path d="M-0.239051, -17.4831 L-1.01495, -16.4196 " /><path d="M-1.01495, -16.4196 L-0.239051, -13.5642 " /><path d="M15.1105, -21.6391 L10.1063, -31.6622 " /><path d="M10.1063, -31.6622 L5.10212, -24.8036 " /><path d="M-4.48982, -10.835 L0, 19.0789 " /><path d="M0, 19.0789 Q5.693, 18.9089 10.1063, 24.5081 " /><path d="M-5.53189, -17.0132 Q-5.97794, -19.4222 -5.43681, -19.9196 " /><path d="M-5.43681, -19.9196 Q-4.55038, -20.7345 -1.01495, -16.4196 " /><path d="M0, -25.9425 Q5.693, -30.5172 10.1063, -31.6622 " /><path d="M0, -25.9425 L-0.179313, -25.5765 " /><path d="M-0.239051, -25.4546 L-0.871472, -24.1637 " /></g>

</svg>