<?xml version="1.0" encoding="UTF-8" standalone="no"?>
<svg xmlns="http://www.w3.org/2000/svg" version="1.1">
<g   fill="none"
   stroke="rgb(0, 0, 0)"
   stroke-linecap="butt"
   stroke-linejoin="miter"
   stroke-width="1.0"
   transform="scale(1, -1)"
  >
<path id= "1" d=" M -2.69657 -39.649 L -2.69657 -47.5385 " />
<path id= "2" d=" M 3.30343 -39.8757 L 3.30343 -47.5385 " />
</g>
<g   fill="none"
   stroke="rgb(0, 0, 0)"
   stroke-linecap="butt"
   stroke-linejoin="miter"
   stroke-width="1.0"
   transform="scale(1, -1)"
  >
<path d="M-2.36458 -47.7239 A3 0.405467 180 0 0 -2.69657 -47.5385" />
<path d="M3.30343 -47.5385 A3 0.405467 180 0 0 -2.36458 -47.7239" />
<path id= "3" d=" M 14.9004 -40.3139 L -4.57489 -39.578 " />
<path id= "4" d=" M -4.57489 -39.578 L -14.6345 -36.9337 " />
<path id= "5" d=" M 15.0709 -38.3296 L 14.9004 -40.3139 " />
<path id= "6" d=" M 15.0709 -38.3296 L 11.4706 -37.3831 " />
<path id= "7" d=" M -13.1625 -34.9985 L -14.464 -34.9493 " />
<path id= "8" d=" M -14.464 -34.9493 L -14.6345 -36.9337 " />
<path id= "9" d=" M 15.0709 -38.3296 L -4.40441 -37.5937 " />
<path id= "10" d=" M -4.40441 -37.5937 L -4.57489 -39.578 " />
<path id= "11" d=" M -4.40441 -37.5937 L -14.464 -34.9493 " />
<path id= "12" d=" M 4.87599 -37.8414 L -4.01737 -37.5054 " />
<path id= "13" d=" M -13.1625 -35.1014 L -4.01737 -37.5054 " />
<path id= "14" d=" M -4.01737 -19.2508 L -4.01737 -37.5054 " />
<path id= "15" d=" M 13.7693 -37.2234 L 4.87599 -37.8414 " />
<path id= "16" d=" M 13.7693 -18.0148 L 13.7693 -37.2234 " />
<path id= "17" d=" M -13.1625 -19.1948 L -13.1625 -35.1014 " />
<path id= "18" d=" M 20.045 -17.5787 L -11.0817 -19.7417 " />
<path id= "19" d=" M -11.0817 -19.7417 L -22.3116 -16.7897 " />
<path id= "20" d=" M 20.045 -15.5971 L 20.045 -17.5787 " />
<path id= "21" d=" M 20.045 -15.5971 L 16.2119 -14.5894 " />
<path id= "22" d=" M 20.045 -15.5971 L 0.286479 -16.9701 " />
<path id= "23" d=" M -3.42928 -17.2283 L -11.0817 -17.7601 " />
<path id= "24" d=" M -11.0817 -17.7601 L -11.0817 -19.7417 " />
<path id= "25" d=" M -11.0817 -17.7601 L -14.0424 -16.9818 " />
<path d="M0.286479, -16.9701 L16.2119, -14.5894 " /><path d="M16.2119, -14.5894 L26.8825, -12.9943 " /><path d="M-3.42928, -17.2283 L-1.70823, -17.2683 " /><path d="M-1.70823, -17.2683 L0.286479, -16.9701 " /><path d="M-14.0424, -16.9818 L-3.42928, -17.2283 " /><path d="M-26.3766, -16.6953 L-14.0424, -16.9818 " /><path d="M-9.83581, -1.74732 L18.0901, 1.2571 " /><path d="M18.0901, 1.2571 Q19.982, -6.98357 26.8825, -12.9943 " /><path d="M-9.83581, -1.74732 Q-8.86789, -11.6729 -1.70823, -17.2683 " /><path d="M18.0901, 1.2571 L-16.2374, -0.0645338 " /><path d="M-16.2374, -0.0645338 L-24.598, -1.70933 " /><path d="M-24.598, -1.70933 Q-26.8825, -10.2402 -26.3766, -16.6953 " /><path d="M-24.598, -1.70933 L-9.83581, -1.74732 " /></g>

</svg>