<?xml version="1.0" encoding="UTF-8" standalone="no"?>
<svg xmlns="http://www.w3.org/2000/svg" version="1.1">
<g   fill="none"
   stroke="rgb(0, 0, 0)"
   stroke-linecap="butt"
   stroke-linejoin="miter"
   stroke-width="1.0"
   transform="scale(1, -1)"
  >
<path id= "1" d=" M -34.316 -0.79163 L -42.1654 -1.58566 " />
<path id= "2" d=" M -33.9668 -6.78692 L -41.5615 -7.5552 " />
</g>
<g   fill="none"
   stroke="rgb(0, 0, 0)"
   stroke-linecap="butt"
   stroke-linejoin="miter"
   stroke-width="1.0"
   transform="scale(1, -1)"
  >
<path d="M-32.5471 -4.15351 A3 1.44362 95.7763 0 1 -34.0141 -0.825583" />
<path d="M-33.9668, -6.78692 L-33.8189, -6.757  L-33.6731, -6.69749  L-33.5308, -6.60898  L-33.3933, -6.49235  L-33.2621, -6.34877  L-33.1384, -6.17965  L-33.0235, -5.98668  L-32.9185, -5.77177  L-32.8245, -5.53705  L-32.7424, -5.28486  L-32.673, -5.0177  L-32.6169, -4.73822  L-32.5749, -4.4492  L-32.5471, -4.15351 " /><path d="M-34.0141 -0.825583 A3 1.44362 95.7763 0 1 -34.316 -0.79163" />
<path d="M-41.8635 -1.61961 A3 1.44362 95.7763 0 1 -42.1654 -1.58566" />
<path d="M-42.1654 -1.58566 A3 1.44362 95.7763 1 1 -41.5615 -7.5552" />
<path d="M-41.5615 -7.5552 A3 1.44362 95.7763 0 1 -41.8635 -1.61961" />
<path id= "7" d=" M -29.5441 -16.18 L -40.3071 -12.7198 " />
<path id= "8" d=" M -40.3071 -12.7198 L -39.8553 -7.38259 " />
<path id= "9" d=" M -39.3404 -1.29989 L -38.468 9.00592 " />
<path id= "10" d=" M -29.5441 -16.18 L -27.705 5.54572 " />
<path id= "11" d=" M -27.705 5.54572 L -38.468 9.00592 " />
<path id= "12" d=" M -27.8078 -16.1929 L -29.5441 -16.18 " />
<path id= "13" d=" M -36.7318 8.99301 L -38.468 9.00592 " />
<path id= "14" d=" M -27.8078 -16.1929 L -25.9687 5.53282 " />
<path id= "15" d=" M -25.9687 5.53282 L -27.705 5.54572 " />
<path id= "16" d=" M -25.9687 5.53282 L -36.7318 8.99301 " />
<path id= "17" d=" M -9.93437 6.4278 L -26.0308 4.79951 " />
<path id= "18" d=" M -27.3775 -15.0088 L -27.3775 -11.1096 " />
<path id= "19" d=" M -9.93437 -13.2443 L -27.3775 -15.0088 " />
<path id= "20" d=" M -9.93437 -13.2443 L -9.93437 6.4278 " />
<path id= "21" d=" M -19.7189 9.57343 L -34.0331 8.12543 " />
<path id= "22" d=" M -9.93437 6.4278 L -19.7189 9.57343 " />
<path id= "23" d=" M -27.3775 -15.0088 L -27.6988 -14.9055 " />
<path id= "24" d=" M -7.97746 -18.7914 L -21.5706 -14.4214 " />
<path id= "25" d=" M -21.6758 9.37548 L -21.6758 20.0386 " />
<path id= "26" d=" M -7.97746 -18.7914 L -7.97746 15.6347 " />
<path id= "27" d=" M -7.97746 15.6347 L -21.6758 20.0386 " />
<path id= "28" d=" M -6.23314 -18.615 L -7.97746 -18.7914 " />
<path id= "29" d=" M -19.9315 20.2151 L -21.6758 20.0386 " />
<path id= "30" d=" M -6.23314 -18.615 L -6.23314 3.23797 " />
<path id= "31" d=" M -6.23314 3.23797 L -6.23314 7.3476 " />
<path id= "32" d=" M -6.23314 7.3476 L -6.23314 15.8112 " />
<path id= "33" d=" M -6.23314 15.8112 L -7.97746 15.6347 " />
<path id= "34" d=" M -6.23314 15.8112 L -9.4009 16.8296 " />
<path id= "35" d=" M -9.4009 16.8296 L -16.7638 19.1967 " />
<path id= "36" d=" M -16.7638 19.1967 L -19.9315 20.2151 " />
<path d="M-13.0823, -31.0555 L-15.692, -16.3113 " /><path d="M-10.4727, -17.9893 L-13.0823, -31.0555 " /><path d="M-6.23314, 7.3476 L-5.71946, 5.80998 " /><path d="M-5.71946, 5.80998 L-6.23314, 3.23797 " /><path d="M-16.7638, 19.1967 L-13.0823, 27.8492 " /><path d="M-13.0823, 27.8492 L-9.4009, 16.8296 " /><path d="M3.4246, 13.3175 L2.22045e-16, -20.0077 " /><path d="M0, -20.0077 Q-7.36943, -22.8456 -13.0823, -31.0555 " /><path d="M3.4246, 13.3175 Q1.2724, 15.2174 -5.71946, 5.80998 " /><path d="M0, 27.2053 Q-7.36943, 28.9866 -13.0823, 27.8492 " /><path d="M-4.44089e-16, 27.2053 L3.4246, 13.3175 " /></g>

</svg>