<?xml version="1.0" encoding="UTF-8" standalone="no"?>
<svg xmlns="http://www.w3.org/2000/svg" version="1.1">
<g   fill="none"
   stroke="rgb(0, 0, 0)"
   stroke-linecap="butt"
   stroke-linejoin="miter"
   stroke-width="1.0"
   transform="scale(1, -1)"
  >
<path id= "1" d=" M 3.10937 41.012 L 3.10937 47.7133 " />
<path id= "2" d=" M -2.89063 41.2476 L -2.89063 47.7133 " />
</g>
<g   fill="none"
   stroke="rgb(0, 0, 0)"
   stroke-linecap="butt"
   stroke-linejoin="miter"
   stroke-width="1.0"
   transform="scale(1, -1)"
  >
<path d="M-2.89063 47.7133 A3 0.348076 0 0 0 3.10937 47.7133" />
<path id= "2" d=" M 13.9774 40.5853 L -6.8615 41.4036 " />
<path id= "3" d=" M -6.8615 41.4036 L -13.8816 36.9025 " />
<path id= "4" d=" M 14.0389 38.629 L 13.9774 40.5853 " />
<path id= "5" d=" M -6.80005 39.4473 L -6.8615 41.4036 " />
<path id= "6" d=" M 14.0389 38.629 L -6.80005 39.4473 " />
<path id= "7" d=" M -6.80005 39.4473 L -13.8201 34.9462 " />
<path id= "8" d=" M -13.8201 34.9462 L -13.8816 36.9025 " />
<path id= "9" d=" M 14.0389 38.629 L 12.329 37.5327 " />
<path id= "10" d=" M -12.5686 34.8971 L -13.8201 34.9462 " />
<path id= "11" d=" M -9.36287 37.1596 L -12.5686 35.1041 " />
<path id= "12" d=" M 12.7873 18.2622 L 12.7873 37.5147 " />
<path id= "13" d=" M -12.5686 17.6433 L -12.5686 35.1041 " />
<path id= "14" d=" M -6.15716 38.2586 L -9.36287 37.1596 " />
<path id= "15" d=" M -6.15716 19.0061 L -6.15716 38.2586 " />
<path id= "16" d=" M 12.7873 37.5147 L -6.15716 38.2586 " />
<path id= "17" d=" M 18.1791 18.0505 L -8.34321 19.0919 " />
<path id= "18" d=" M -8.34321 19.0919 L -19.5632 15.2454 " />
<path id= "19" d=" M 18.1791 16.064 L 18.1791 18.0505 " />
<path id= "20" d=" M -8.34321 17.1054 L -8.34321 19.0919 " />
<path id= "21" d=" M 18.1791 16.064 L 10.2385 16.3758 " />
<path id= "22" d=" M -0.402605 16.7936 L -8.34321 17.1054 " />
<path id= "23" d=" M -8.34321 17.1054 L -15.4654 14.6637 " />
<path id= "24" d=" M -17.7007 13.8974 L -19.5632 13.2589 " />
<path id= "25" d=" M -19.5632 13.2589 L -19.5632 15.2454 " />
<path id= "26" d=" M 18.1791 16.064 L 11.0569 13.6223 " />
<path id= "27" d=" M -18.1206 13.2022 L -19.5632 13.2589 " />
<path d="M11.0569, 13.6223 L10.2385, 16.3758 " /><path d="M9.69012, 18.2208 L-0.402605, 16.7936 " /><path d="M10.2385, 16.3758 L9.69012, 18.2208 " /><path d="M-0.402605, 16.7936 L-15.4654, 14.6637 " /><path d="M-15.4654, 14.6637 L-17.3521, 14.3969 " /><path d="M11.1594, 13.2774 L11.0569, 13.6223 " /><path d="M1.93138, -1.87139 L2.07866, -1.7396 " /><path d="M2.07866, -1.7396 L6.52079, 2.23554 " /><path d="M6.52079, 2.23554 Q6.72476, 4.81565 7.09023, 7.28237 " /><path d="M7.09023, 7.28237 Q7.94669, 13.0629 9.69012, 18.2208 " /><path d="M1.93138, -1.87139 Q2.55389, -1.33336 3.13457, -0.794696 " /><path d="M6.57095, 2.84026 Q10.7914, 8.02982 11.1594, 13.2774 " /><path d="M6.52079, 2.23554 L-11.3298, -1.35067 " /><path d="M-11.3298, -1.35067 Q-22.84, 6.95559 -17.3521, 14.3969 " /><path d="M-11.3298, -1.35067 L-8.86661, -3.03976 " /><path d="M-8.86661, -3.03976 L1.93138, -1.87139 " /></g>

</svg>