<?xml version="1.0" encoding="UTF-8" standalone="no"?>
<svg xmlns="http://www.w3.org/2000/svg" version="1.1" viewBox="-39.5966 -39.5966 116.5384 116.5384">
<g   fill="none"
   stroke="rgb(0, 0, 0)"
   stroke-linecap="butt"
   stroke-linejoin="miter"
   stroke-width="1.0"
   transform="scale(1, -1)"
  >
<path id= "1" d=" M -20.6908 12.571 L -26.2803 14.3934 " />
<path id= "2" d=" M -22.6823 5.85765 L -28.4502 7.73821 " />
</g>
<g   fill="none"
   stroke="rgb(0, 0, 0)"
   stroke-linecap="butt"
   stroke-linejoin="miter"
   stroke-width="1.0"
   transform="scale(1, -1)"
  >
<path id= "1" d=" M -22.8152 -20.3101 L -32.5552 -17.1344 " />
<path id= "2" d=" M -32.5552 -17.1344 L -32.5552 -5.29489 " />
<path id= "3" d=" M -32.5552 6.2386 L -32.5552 12.6402 " />
<path id= "4" d=" M -22.8152 -20.3101 L 22.8152 -9.46455 " />
<path id= "5" d=" M 22.8152 -9.46455 L 13.0753 -6.28892 " />
<path id= "6" d=" M -32.5552 -17.1344 L 13.0753 -6.28892 " />
<path id= "7" d=" M -32.5552 12.6402 L -30.3316 13.1687 " />
<path id= "8" d=" M -9.22421 18.1855 L 13.0753 23.4857 " />
<path id= "9" d=" M 13.0753 -6.28892 L 13.0753 23.4857 " />
<path id= "10" d=" M -28.7526 -6.53468 L -25.174 -5.6841 " />
<path id= "11" d=" M -17.345 -8.23667 L 0.146683 -4.07922 " />
<path id= "12" d=" M 0.146683 -4.07922 L 0.146683 15.1302 " />
<path id= "13" d=" M 22.8152 20.3101 L 13.0753 23.4857 " />
<path id= "14" d=" M 22.8152 -9.46455 L 22.8152 20.3101 " />
<path id= "15" d=" M -28.7526 -6.53468 L -34.5966 -4.62931 " />
<path id= "16" d=" M -34.5966 -4.62931 L -34.5966 5.75339 " />
<path id= "17" d=" M -34.5966 -4.62931 L -30.3316 -3.61559 " />
<path id= "18" d=" M -34.5966 5.75339 L -30.3316 6.76711 " />
<path id= "19" d=" M -17.345 -8.23667 L -27.7242 -4.8526 " />
<path id= "20" d=" M -29.9808 -4.11686 L -30.3316 -4.0025 " />
<path id= "21" d=" M -30.3316 -4.0025 L -30.3316 15.2069 " />
<path id= "22" d=" M 0.146683 15.1302 L -12.5626 19.274 " />
<path id= "23" d=" M -30.3316 15.2069 L -29.9808 15.2903 " />
<path id= "24" d=" M 0.146683 -4.07922 L -12.5626 0.0645476 " />
<path id= "25" d=" M -30.3316 -4.0025 L -29.9808 -3.91913 " />
<path id= "26" d=" M -3.09996 11.6265 L -3.09996 1.54156 " />
<path id= "27" d=" M -3.09996 11.6265 L -9.26858 13.6377 " />
<path id= "28" d=" M -9.26858 13.6377 L -9.26858 3.55279 " />
<path id= "29" d=" M -3.09996 1.54156 L -9.26858 3.55279 " />
<path id= "30" d=" M -30.3316 -1.78589 L -33.0756 -2.43809 " />
<path id= "31" d=" M -30.3316 4.93741 L -33.0756 4.28521 " />
<path id= "32" d=" M -33.0756 -2.43809 L -33.0756 4.28521 " />
<path id= "33" d=" M -5.38148 11.0842 L -3.09996 11.6265 " />
<path id= "34" d=" M -5.38148 2.28543 L -5.38148 11.0842 " />
<path id= "35" d=" M -5.38148 11.0842 L -9.26858 12.3516 " />
<path id= "36" d=" M -30.3316 3.39055 L -33.0756 4.28521 " />
<path id= "37" d=" M -28.5424 -5.08836 L -29.9808 -4.70155 " />
<path id= "38" d=" M -29.9808 -4.70155 L -29.9808 9.82072 " />
<path id= "39" d=" M -29.9808 11.0675 L -29.9808 18.3498 " />
<path id= "40" d=" M -28.5424 -5.08836 L -12.5626 -0.483355 " />
<path id= "41" d=" M -12.5626 -0.483355 L -14.0011 -0.0965371 " />
<path id= "42" d=" M -29.9808 -4.70155 L -14.0011 -0.0965371 " />
<path id= "43" d=" M -29.9808 18.3498 L -14.0011 22.9548 " />
<path id= "44" d=" M -14.0011 -0.0965371 L -14.0011 22.9548 " />
<path d="M-19.2436, 9.91833 L-19.2519, 10.192  L-19.2766, 10.4591  L-19.3176, 10.7178  L-19.3745, 10.9663  L-19.4471, 11.2029  L-19.5349, 11.4262  L-19.6371, 11.6345  L-19.7532, 11.8264  L-19.8824, 12.0008  L-20.0237, 12.1562  L-20.1763, 12.2919  L-20.3391, 12.4067  L-20.511, 12.4999  L-20.6908, 12.571 " /><path d="M-22.6823, 5.85765 L-22.3562, 5.78846  L-22.0165, 5.7884  L-21.6701, 5.8575  L-21.3241, 5.99435  L-20.9854, 6.19618  L-20.6609, 6.45893  L-20.357, 6.7773  L-20.08, 7.14485  L-19.8354, 7.55417  L-19.6282, 7.997  L-19.4625, 8.46439  L-19.3417, 8.94693  L-19.2683, 9.43486  L-19.2436, 9.91833 " /><path id= "47" d=" M -12.5626 22.568 L -14.0011 22.9548 " />
<path id= "48" d=" M -12.5626 -0.483355 L -12.5626 22.568 " />
<path d="M-24.7034 11.6985 A3.5 2.55656 71.9418 0 1 -26.2803 14.3934" />
<path d="M-26.2803 14.3934 A3.5 2.55656 71.9418 0 1 -28.4502 7.73821" />
<path d="M-28.4502 7.73821 A3.5 2.55656 71.9418 0 1 -24.7034 11.6985" />
<path d="M-26.2245 11.3369 A1.5 1.09567 71.9418 0 1 -26.9002 12.4919" />
<path d="M-26.9002 12.4919 A1.5 1.09567 71.9418 0 1 -27.8302 9.63969" />
<path d="M-27.8302 9.63969 A1.5 1.09567 71.9418 0 1 -26.2245 11.3369" />
</g>

</svg>