<?xml version="1.0" encoding="UTF-8" standalone="no"?>
<svg xmlns="http://www.w3.org/2000/svg" version="1.1">
<g   fill="none"
   stroke="rgb(0, 0, 0)"
   stroke-linecap="butt"
   stroke-linejoin="miter"
   stroke-width="1.0"
   transform="scale(1, -1)"
  >
<path id= "1" d=" M 41.0088 -3.5 L 48 -3.5 " />
<path id= "2" d=" M 41.0088 3.5 L 48 3.5 " />
<path id= "3" d=" M 35.5 -3.5 L 38.1282 -3.5 " />
<path id= "4" d=" M 35.5 3.5 L 38.1282 3.5 " />
</g>
<g   fill="none"
   stroke="rgb(0, 0, 0)"
   stroke-linecap="butt"
   stroke-linejoin="miter"
   stroke-width="1.0"
   transform="scale(1, -1)"
  >
<path id= "1" d=" M 36.8136 11 L 36.8136 3.5 " />
<path id= "2" d=" M 36.8136 -3.5 L 36.8136 -11 " />
<path id= "3" d=" M 36.8136 11 L 39.018 11 " />
<path id= "4" d=" M 39.018 11 L 41.0088 11 " />
<path id= "5" d=" M 41.0088 11 L 41.0088 -11 " />
<path id= "6" d=" M 36.8136 -11 L 39.018 -11 " />
<path id= "7" d=" M 39.018 -11 L 41.0088 -11 " />
<path id= "8" d=" M 39.018 11 L 39.018 -11 " />
<path d="M38.4652, 0 L38.4631, -0.391876  L38.4568, -0.778823  L38.4463, -1.15598  L38.4318, -1.51859  L38.4135, -1.86211  L38.3917, -2.18221  L38.3665, -2.47487  L38.3383, -2.73641  L38.3075, -2.96353  L38.2744, -3.15339  L38.2395, -3.30359  L38.2032, -3.41225  L38.1659, -3.47799  L38.1282, -3.5 " /><path d="M38.1282, 3.5 Q38.1471, 3.489 38.1659, 3.47799  Q38.1846, 3.44512 38.2032, 3.41225  Q38.2213, 3.35792 38.2395, 3.30359  Q38.257, 3.22849 38.2744, 3.15339  Q38.291, 3.05846 38.3075, 2.96353  Q38.3229, 2.84997 38.3383, 2.73641  Q38.3524, 2.60564 38.3665, 2.47487  Q38.3791, 2.32854 38.3917, 2.18221  Q38.4026, 2.02216 38.4135, 1.86211  Q38.4227, 1.69035 38.4318, 1.51859  Q38.4391, 1.33728 38.4463, 1.15598  Q38.4515, 0.9674 38.4568, 0.778823  Q38.4643, 0.393258 38.4652, 8.32667e-16 " /><path d="M48, 0 L48, -0.391876  L48, -0.778823  L48, -1.15598  L48, -1.51859  L48, -1.86211  L48, -2.18221  L48, -2.47487  L48, -2.73641  L48, -2.96353  L48, -3.15339  L48, -3.30359  L48, -3.41225  L48, -3.47799  L48, -3.5 " /><path d="M48, 3.5 Q48, 3.489 48, 3.47799  Q48, 3.44512 48, 3.41225  Q48, 3.35792 48, 3.30359  Q48, 3.22849 48, 3.15339  Q48, 3.05846 48, 2.96353  Q48, 2.84997 48, 2.73641  Q48, 2.60564 48, 2.47487  Q48, 2.32854 48, 2.18221  Q48, 2.02216 48, 1.86211  Q48, 1.69035 48, 1.51859  Q48, 1.33728 48, 1.15598  Q48, 0.9674 48, 0.778823  Q48, 0.393258 48, 8.32667e-16 " /><path id= "13" d=" M 35.5 9 L 35.5 -9 " />
<path id= "14" d=" M 16 -9 L 35.5 -9 " />
<path id= "15" d=" M 16 9 L 35.5 9 " />
<path id= "16" d=" M 22 -5.25 L 22 5.25 " />
<path id= "17" d=" M 22 -5.25 L 31.5 -5.25 " />
<path id= "18" d=" M 22 5.25 L 31.5 5.25 " />
<path id= "19" d=" M 31.5 -5.25 L 31.5 5.25 " />
<path id= "20" d=" M 16 14 L 16 -14 " />
<path id= "21" d=" M 15.5 -14 L 16 -14 " />
<path id= "22" d=" M 15.5 14 L 16 14 " />
<path d="M15.5, 15.5 L15.5, 0 " /><path d="M15.5, 0 L15.5, -15.5 " /><path d="M0, 5 Q6.70646, 12.7356 15.5, 15.5 " /><path d="M0, 5 L0, 0 " /><path d="M0, 0 Q6.70646, 0 15.5, 0 " /><path d="M0, -5 Q6.70646, -12.7356 15.5, -15.5 " /><path d="M0, 0 L0, -5 " /></g>

</svg>