<?xml version="1.0" encoding="UTF-8" standalone="no"?>
<svg xmlns="http://www.w3.org/2000/svg" version="1.1">
<g   fill="none"
   stroke="rgb(0, 0, 0)"
   stroke-linecap="butt"
   stroke-linejoin="miter"
   stroke-width="1.0"
   transform="scale(1, -1)"
  >
<path id= "1" d=" M -32.4048 13.6251 L -38.55 16.08 " />
<path id= "2" d=" M -35.2967 7.24245 L -41.1469 9.57952 " />
<path d="M11.2432, 1.2073 L-11.8225, -11.6168 " /></g>
<g   fill="none"
   stroke="rgb(0, 0, 0)"
   stroke-linecap="butt"
   stroke-linejoin="miter"
   stroke-width="1.0"
   transform="scale(1, -1)"
  >
<path id= "1" d=" M -22.4872 24.0309 L -23.8819 24.7065 " />
<path id= "2" d=" M -23.8819 24.7065 L -23.8819 5.30284 " />
<path id= "3" d=" M -22.4872 4.62726 L -23.8819 5.30284 " />
<path id= "4" d=" M -22.4872 24.0309 L -22.4872 4.62726 " />
<path id= "5" d=" M -23.8819 24.7065 L -40.3671 17.1477 " />
<path id= "6" d=" M -23.8819 5.30284 L -40.3671 -2.2559 " />
<path id= "7" d=" M -40.3671 17.1477 L -40.3671 15.5462 " />
<path id= "8" d=" M -40.3671 9.268 L -40.3671 -2.2559 " />
<path d="M-35.2967, 7.24245 L-34.8011, 7.13897  L-34.2579, 7.2007  L-33.6942, 7.42456  L-33.1384, 7.79931  L-32.6183, 8.30616  L-32.1601, 8.91971  L-31.7866, 9.60917  L-31.5166, 10.34  L-31.3636, 11.0755  L-31.3354, 11.7788  L-31.4333, 12.4147  L-31.6524, 12.9513  L-31.9818, 13.3616  L-32.4048, 13.6251 " /><path id= "10" d=" M -22.4872 4.62726 L -38.9724 -2.93147 " />
<path id= "11" d=" M -38.9724 -2.93147 L -40.3671 -2.2559 " />
<path d="M-42.1116 11.5715 A3.5 1.99604 68.2241 0 1 -41.1469 9.57952" />
<path d="M-41.1469 9.57952 A3.5 1.99604 68.2241 1 1 -38.55 16.08" />
<path d="M-38.55 16.08 A3.5 1.99604 68.2241 0 1 -42.1116 11.5715" />
<path d="M-40.8184 12.2905 A1.5 0.855448 68.2241 0 1 -40.4049 11.4368" />
<path d="M-40.4049 11.4368 A1.5 0.855448 68.2241 1 1 -39.292 14.2227" />
<path d="M-39.292 14.2227 A1.5 0.855448 68.2241 0 1 -40.8184 12.2905" />
<path id= "18" d=" M -20.6141 22.351 L -20.6141 6.47529 " />
<path id= "19" d=" M -20.6141 6.47529 L -22.4872 5.43382 " />
<path id= "20" d=" M -30.7627 0.832831 L -33.5462 -0.714783 " />
<path id= "21" d=" M -20.6141 22.351 L -22.4872 21.3095 " />
<path id= "22" d=" M -33.5462 -0.443485 L -33.5462 -0.714783 " />
<path id= "23" d=" M -8.90451 17.6732 L -20.6141 22.351 " />
<path id= "24" d=" M -5.73904 0.532951 L -20.6141 6.47529 " />
<path id= "25" d=" M -5.73904 5.55712 L -5.73904 0.532951 " />
<path id= "26" d=" M -18.6712 -6.65712 L -33.5462 -0.714783 " />
<path id= "27" d=" M -18.6712 -6.65712 L -5.73904 0.532951 " />
<path id= "28" d=" M -19.6516 3.00173 L -26.1177 -0.593309 " />
<path id= "29" d=" M -19.6516 3.00173 L -13.549 0.563845 " />
<path id= "30" d=" M -26.1177 -0.593309 L -20.0151 -3.03119 " />
<path id= "31" d=" M -13.549 0.563845 L -20.0151 -3.03119 " />
<path id= "32" d=" M 5.89993 27.2896 L 5.89993 2.5941 " />
<path id= "33" d=" M 5.89993 2.5941 L -23.1975 -13.5836 " />
<path id= "34" d=" M 5.89993 27.2896 L -10.3545 18.2524 " />
<path id= "35" d=" M -23.1975 -4.84895 L -23.1975 -13.5836 " />
<path id= "36" d=" M -3.79921 4.78219 L 3.9601 9.09623 " />
<path id= "37" d=" M 3.9601 18.6305 L 3.9601 9.09623 " />
<path id= "38" d=" M -20.0151 -2.14921 L -20.0151 -3.03119 " />
<path id= "39" d=" M -20.0151 -2.14921 L -25.1946 -0.0800868 " />
<path id= "40" d=" M -14.4721 0.932605 L -20.0151 -2.14921 " />
<path id= "41" d=" M 6.28134 27.1373 L 5.89993 27.2896 " />
<path id= "42" d=" M 6.28134 2.44173 L 5.89993 2.5941 " />
<path id= "43" d=" M 6.28134 27.1373 L 6.28134 2.44173 " />
<path id= "44" d=" M -22.8161 -13.7359 L -23.1975 -13.5836 " />
<path id= "45" d=" M -22.8161 -13.7359 L 6.28134 2.44173 " />
<path id= "46" d=" M -2.52388 21.2207 L -10.2832 16.9067 " />
<path id= "47" d=" M 3.9601 18.6305 L -2.52388 21.2207 " />
<path id= "48" d=" M -10.2832 16.9067 L -10.2832 7.37244 " />
<path id= "49" d=" M -3.79921 4.78219 L -10.2832 7.37244 " />
<path id= "50" d=" M -2.52388 11.6865 L -10.2832 7.37244 " />
<path id= "51" d=" M 3.9601 9.09623 L -2.52388 11.6865 " />
<path id= "52" d=" M -2.52388 21.2207 L -2.52388 11.6865 " />
<path d="M7.57456, 29.1792 L-11.3577, 18.6532 " /><path d="M7.57456, 1.83776 L7.57456, 29.1792 " /><path d="M-29.7826, -2.21829 L-31.222, -6.06171 " /><path d="M-24.7559, -16.1374 L7.57456, 1.83776 " /><path d="M-31.222, -6.06171 L-24.7559, -16.1374 " /><path id= "58" d=" M -8.98997 15.9455 L -3.8171 18.8215 " />
<path id= "59" d=" M -8.98997 15.9455 L -8.98997 9.77162 " />
<path id= "60" d=" M -8.98997 9.77162 L -3.8171 12.6477 " />
<path id= "61" d=" M -3.8171 18.8215 L -3.8171 12.6477 " />
<path d="M12.9322, 11.6 Q10.4034, 21.9047 7.57456, 29.1792 " /><path d="M12.9322, 2.78016 L12.9322, 11.6 " /><path d="M12.9322, 2.78016 Q12.1038, 1.68579 11.2432, 1.2073 " /><path d="M11.2432, 1.2073 Q9.47671, 0.22518 7.57456, 1.83776 " /><path d="M-11.8225, -11.6168 Q-17.6372, -14.8497 -24.7559, -16.1374 " /><path id= "67" d=" M -3.8171 13.879 L -8.98997 15.9455 " />
</g>

</svg>