<?xml version="1.0" encoding="UTF-8" standalone="no"?>
<svg xmlns="http://www.w3.org/2000/svg" version="1.1" viewBox="-42.2343 -42.2343 136.7679 136.7679">
<g   fill="none"
   stroke="rgb(0, 0, 0)"
   stroke-linecap="butt"
   stroke-linejoin="miter"
   stroke-width="1.0"
   transform="scale(1, -1)"
  >
<path id= "1" d=" M -28.3072 8.7304 L -34.3252 8.77939 " />
<path id= "2" d=" M -27.8819 1.7267 L -34.3821 1.77962 " />
</g>
<g   fill="none"
   stroke="rgb(0, 0, 0)"
   stroke-linecap="butt"
   stroke-linejoin="miter"
   stroke-width="1.0"
   transform="scale(1, -1)"
  >
<path id= "1" d=" M 10.8253 -29.9064 L 0.0897893 -29.819 " />
<path id= "2" d=" M 0.0897893 -29.819 L -21.5608 -30.0041 " />
<path id= "3" d=" M -10.8253 -30.0915 L -21.5608 -30.0041 " />
<path id= "4" d=" M 10.8253 -29.9064 L -10.8253 -30.0915 " />
<path id= "5" d=" M 10.8253 -29.9064 L 10.8253 30.0915 " />
<path id= "6" d=" M 10.8253 30.0915 L 0.0897893 30.1789 " />
<path id= "7" d=" M 0.0897893 -29.819 L 0.0897893 30.1789 " />
<path id= "8" d=" M -21.5608 -30.0041 L -21.5608 -9.94069 " />
<path id= "9" d=" M -21.5608 16.4756 L -21.5608 29.9938 " />
<path id= "10" d=" M 0.0897893 30.1789 L -21.5608 29.9938 " />
<path id= "11" d=" M -6.96063 -24.8795 L -14.5104 -24.944 " />
<path id= "12" d=" M -6.96063 -24.8795 L -6.96063 -12.8799 " />
<path id= "13" d=" M -3.75145 -9.85254 L -17.7196 -9.97196 " />
<path id= "14" d=" M -3.75145 -9.85254 L -3.75145 13.1467 " />
<path id= "15" d=" M -6.96063 -24.8795 L -13.4019 -24.827 " />
<path id= "16" d=" M -13.4019 -24.827 L -20.9517 -24.8916 " />
<path id= "17" d=" M -14.5104 -24.944 L -20.9517 -24.8916 " />
<path id= "18" d=" M -6.96063 -12.8799 L -13.4019 -12.8274 " />
<path id= "19" d=" M -13.4019 -24.827 L -13.4019 -12.8274 " />
<path id= "20" d=" M -13.4019 -12.8274 L -20.9517 -12.892 " />
<path id= "21" d=" M -20.9517 -24.8916 L -20.9517 -12.892 " />
<path id= "22" d=" M -3.75145 -9.85254 L -18.0655 -9.73601 " />
<path id= "23" d=" M -18.0655 -9.73601 L -32.0336 -9.85543 " />
<path id= "24" d=" M -17.7196 -9.97196 L -32.0336 -9.85543 " />
<path d="M-14.6719 -9.8802 A4.5 0.0375427 4.47281e-15 0 0 -22.3925 -9.85398" />
<path d="M-22.3925 -9.85398 A4.5 0.0375427 4.47281e-15 0 0 -13.3925 -9.85398" />
<path d="M-13.3925 -9.85398 A4.5 0.0375427 4.47281e-15 0 0 -14.6719 -9.8802" />
<path id= "28" d=" M -32.0336 -9.85543 L -32.0336 -6.70151 " />
<path id= "29" d=" M -3.75145 13.1467 L -18.0655 13.2632 " />
<path id= "30" d=" M -18.0655 -9.73601 L -18.0655 -6.48436 " />
<path id= "31" d=" M -18.0655 2.23695 L -18.0655 13.2632 " />
<path id= "32" d=" M -18.0655 13.2632 L -18.8245 13.2567 " />
<path id= "33" d=" M -14.7324 -14.8387 L -14.7324 -22.8385 " />
<path id= "34" d=" M -14.7324 -14.8387 L -19.6212 -14.8805 " />
<path id= "35" d=" M -19.6212 -14.8805 L -19.6212 -22.8803 " />
<path id= "36" d=" M -14.7324 -22.8385 L -19.6212 -22.8803 " />
<path id= "37" d=" M -14.7324 -14.9203 L -19.6212 -14.8805 " />
<path id= "38" d=" M -17.4699 -6.40909 L -18.8948 -6.58918 " />
<path id= "39" d=" M -18.8948 -6.58918 L -35.6565 -6.73248 " />
<path id= "40" d=" M -17.4699 -6.40909 L -19.0477 16.4971 " />
<path id= "41" d=" M -19.0477 16.4971 L -20.4725 16.317 " />
<path id= "42" d=" M -18.8948 -6.58918 L -20.4725 16.317 " />
<path id= "43" d=" M -35.6565 -6.73248 L -36.3426 3.22786 " />
<path id= "44" d=" M -36.5817 6.70001 L -37.2343 16.1737 " />
<path id= "45" d=" M -20.4725 16.317 L -37.2343 16.1737 " />
<path d="M-27.8819, 1.7267 L-27.3427, 1.81007  L-26.8412, 2.06485  L-26.4025, 2.47827  L-26.0488, 3.02961  L-25.7975, 3.69121  L-25.6615, 4.42989  L-25.6475, 5.20863  L-25.7562, 5.98836  L-25.9821, 6.73  L-26.314, 7.39634  L-26.7351, 7.95398  L-27.2244, 8.37496  L-27.7574, 8.63817  L-28.3072, 8.7304 " /><path d="M-28.3072, 8.7304 L-28.3358, 8.73039 " /><path id= "48" d=" M -35.8094 16.3538 L -37.2343 16.1737 " />
<path id= "49" d=" M -19.0477 16.4971 L -35.8094 16.3538 " />
<path d="M-34.3536 8.77939 A3.5 2.44434 89.5336 0 1 -34.3821 1.77962" />
<path d="M-34.3821 1.77962 A3.5 2.44434 89.5336 0 1 -34.3252 8.77939" />
<path d="M-34.3252 8.77939 A3.5 2.44434 89.5336 0 1 -34.3536 8.77939" />
<path d="M-34.3536 6.77945 A1.5 1.04757 89.5336 0 1 -34.3659 3.77956" />
<path d="M-34.3659 3.77956 A1.5 1.04757 89.5336 0 1 -34.3414 6.77946" />
<path d="M-34.3414 6.77946 A1.5 1.04757 89.5336 0 1 -34.3536 6.77945" />
</g>

</svg>