<?xml version="1.0" encoding="UTF-8" standalone="no"?>
<svg xmlns="http://www.w3.org/2000/svg" version="1.1" viewBox="-35.9767 -35.9767 83.9767 82.9767">
<g   fill="none"
   stroke="rgb(0, 0, 0)"
   stroke-linecap="butt"
   stroke-linejoin="miter"
   stroke-width="1.0"
   transform="scale(1, -1)"
  >
<path id= "1" d=" M 0.338643 32.0786 L 0.338643 39.8769 " />
<path id= "2" d=" M -6.66136 32.4496 L -6.66136 39.8769 " />
</g>
<g   fill="none"
   stroke="rgb(0, 0, 0)"
   stroke-linecap="butt"
   stroke-linejoin="miter"
   stroke-width="1.0"
   transform="scale(1, -1)"
  >
<path id= "1" d=" M 19.9943 24.0848 L 30.9767 19.6734 " />
<path id= "2" d=" M 30.9767 6.61607 L 30.9767 19.6734 " />
<path id= "3" d=" M -30.9767 -6.61607 L -30.9767 6.44127 " />
<path id= "4" d=" M -15.967 15.4936 L -30.9767 6.44127 " />
<path id= "5" d=" M 30.9767 19.6734 L -6.95957 -3.2058 " />
<path id= "6" d=" M -30.9767 6.44127 L -6.95957 -3.2058 " />
<path id= "7" d=" M 19.9943 20.9083 L 14.0702 17.3355 " />
<path id= "8" d=" M 14.0702 13.7586 L -0.472059 4.98822 " />
<path id= "9" d=" M -15.967 11.2121 L -0.472059 4.98822 " />
<path id= "10" d=" M 30.9767 6.61607 L -6.95957 -16.2631 " />
<path id= "11" d=" M -6.95957 -16.2631 L -6.95957 -3.2058 " />
<path id= "12" d=" M -30.9767 -6.61607 L -6.95957 -16.2631 " />
<path id= "13" d=" M 14.0702 31.1223 L 19.9943 28.7427 " />
<path id= "14" d=" M 19.9943 20.9083 L 19.9943 28.7427 " />
<path id= "15" d=" M 19.9943 28.7427 L 14.0702 25.1699 " />
<path id= "16" d=" M 13.6014 31.3567 L 14.0702 31.1684 " />
<path id= "17" d=" M 14.0702 13.7586 L 14.0702 31.1684 " />
<path id= "18" d=" M -0.472059 4.98822 L -0.472059 22.398 " />
<path id= "19" d=" M 14.0702 31.1684 L 13.5685 30.8658 " />
<path id= "20" d=" M 9.13534 28.1922 L -0.472059 22.398 " />
<path id= "21" d=" M -15.967 11.2121 L -15.967 28.6219 " />
<path id= "22" d=" M -15.1121 29.1375 L -15.967 28.6219 " />
<path id= "23" d=" M -15.967 28.6219 L -0.472059 22.398 " />
<path id= "24" d=" M -4.15211 10.8189 L -12.287 14.0864 " />
<path id= "25" d=" M -4.15211 10.8189 L -4.15211 19.0885 " />
<path id= "26" d=" M -4.15211 19.0885 L -12.287 22.3561 " />
<path id= "27" d=" M -12.287 14.0864 L -12.287 22.3561 " />
<path id= "28" d=" M 14.0702 26.6529 L 17.2539 28.5729 " />
<path id= "29" d=" M 14.0702 29.8517 L 17.2539 28.5729 " />
<path id= "30" d=" M -10.3901 15.2304 L -12.287 14.0864 " />
<path id= "31" d=" M -10.3901 15.2304 L -4.15211 12.7247 " />
<path id= "32" d=" M -10.3901 15.2304 L -10.3901 21.5942 " />
<path id= "33" d=" M 0.338643 37.4114 L 13.649 32.065 " />
<path id= "34" d=" M 13.5278 30.259 L 13.649 32.065 " />
<path id= "35" d=" M -19.5415 30.9166 L -19.4203 32.7227 " />
<path id= "36" d=" M -6.66136 38.7261 L -19.4203 32.7227 " />
<path id= "37" d=" M 13.649 32.065 L -0.826325 25.254 " />
<path id= "38" d=" M -19.4203 32.7227 L -0.826325 25.254 " />
<path d="M-5.37431, 31.2229 L-4.91073, 31.0616  L-4.40184, 30.9316  L-3.86084, 30.836  L-3.30173, 30.7774  L-2.73898, 30.7573  L-2.18716, 30.7762  L-1.66058, 30.8337  L-1.17285, 30.9282  L-0.736619, 31.0572  L-0.363173, 31.2176  L-0.0621828, 31.405  L0.158556, 31.6147  L0.293328, 31.8412  L0.338643, 32.0786 " /><path d="M-6.66136, 32.4496 L-6.65435, 32.3546  L-6.63334, 32.2593  L-6.59842, 32.164  L-6.54973, 32.069  L-6.48747, 31.9749  L-6.41188, 31.8819  L-6.32327, 31.7905  L-6.22198, 31.7009  L-6.10844, 31.6136  L-5.98308, 31.5289  L-5.84643, 31.4472  L-5.69901, 31.3687  L-5.54143, 31.2939  L-5.37431, 31.2229 " /><path id= "41" d=" M 13.5278 30.259 L -0.947526 23.4479 " />
<path id= "42" d=" M -0.947526 23.4479 L -0.826325 25.254 " />
<path id= "43" d=" M -19.5415 30.9166 L -0.947526 23.4479 " />
<path d="M-5.37431 38.5423 A3.5 1.72265 0 0 1 0.338643 39.8769" />
<path d="M0.338643 39.8769 A3.5 1.72265 0 0 1 -6.66136 39.8769" />
<path d="M-6.66136 39.8769 A3.5 1.72265 0 0 1 -5.37431 38.5423" />
<path d="M-4.10976 39.3049 A1.5 0.73828 0 0 1 -1.66136 39.8769" />
<path d="M-1.66136 39.8769 A1.5 0.73828 0 0 1 -4.66136 39.8769" />
<path d="M-4.66136 39.8769 A1.5 0.73828 0 0 1 -4.10976 39.3049" />
</g>

</svg>