<?xml version="1.0" encoding="UTF-8" standalone="no"?>
<svg xmlns="http://www.w3.org/2000/svg" version="1.1" viewBox="-40.9819 -41.8535 225.9819 226.8535">
<g   fill="none"
   stroke="rgb(0, 0, 0)"
   stroke-linecap="butt"
   stroke-linejoin="miter"
   stroke-width="1.0"
   transform="scale(1, -1)"
  >
<path id= "1" d=" M 11.0353 31.7837 L 0.50199 34.5065 " />
<path id= "2" d=" M 0.50199 34.5065 L -21.5687 28.9562 " />
<path id= "3" d=" M -11.0353 26.2334 L -21.5687 28.9562 " />
<path id= "4" d=" M 11.0353 31.7837 L -11.0353 26.2334 " />
<path id= "5" d=" M 11.0353 31.7837 L 11.0353 -26.2334 " />
<path id= "6" d=" M -21.5687 28.9562 L -21.5687 -29.0608 " />
<path id= "7" d=" M -11.0353 26.2334 L -11.0353 -31.7837 " />
<path id= "8" d=" M -11.0353 -31.7837 L -21.5687 -29.0608 " />
<path id= "9" d=" M 11.0353 -26.2334 L -11.0353 -31.7837 " />
<path id= "10" d=" M -21.5687 16.7795 L -31.6974 14.2324 " />
<path id= "11" d=" M -21.5687 11.6142 L -31.6974 14.2324 " />
<path d="M-21.5687 13.6885 A4.5 1.14734 180 0 0 -22.0556 14.2076" />
<path d="M-22.0556 14.2076 A4.5 1.14734 180 0 0 -21.5687 14.7267" />
<path id= "14" d=" M -21.5687 -10.6257 L -31.6974 -8.00746 " />
<path id= "15" d=" M -31.6974 14.2324 L -31.6974 -8.00746 " />
<path id= "16" d=" M -31.6974 12.3324 L -35.3055 11.4251 " />
<path id= "17" d=" M -33.9075 10.8783 L -35.3055 11.4251 " />
<path id= "18" d=" M -31.6974 11.4341 L -33.9075 10.8783 " />
<path id= "19" d=" M -35.3055 11.4251 L -36.8535 -10.3123 " />
<path id= "20" d=" M -33.9075 10.8783 L -35.4555 -10.859 " />
<path id= "21" d=" M -35.4555 -10.859 L -36.8535 -10.3123 " />
<path id= "22" d=" M -27.9591 -8.9738 L -35.4555 -10.859 " />
<path d="M-35.9819 1.92606 A3.5 2.4095 75.5064 0 0 -35.74 5.32346" />
</g>

</svg>