<?xml version="1.0" encoding="UTF-8" standalone="no"?>
<svg xmlns="http://www.w3.org/2000/svg" version="1.1" viewBox="-21.0 -20.5 74.0 73.5">
<g   fill="none"
   stroke="rgb(0, 0, 0)"
   stroke-linecap="butt"
   stroke-linejoin="miter"
   stroke-width="1.0"
   transform="scale(1, -1)"
  >
<path id= "1" d=" M 40.3148 -3.5 L 48 -3.5 " />
<path id= "2" d=" M 40.3148 3.5 L 48 3.5 " />
</g>
<g   fill="none"
   stroke="rgb(0, 0, 0)"
   stroke-linecap="butt"
   stroke-linejoin="miter"
   stroke-width="1.0"
   transform="scale(1, -1)"
  >
<path id= "1" d=" M 0 15.5 L 15 15.5 " />
<path id= "2" d=" M 15 15.5 L 15 -15.5 " />
<path id= "3" d=" M 0 -15.5 L 15 -15.5 " />
<path id= "4" d=" M 0 15.5 L 0 -15.5 " />
<path id= "5" d=" M 15 -10 L 35 -10 " />
<path id= "6" d=" M 15 10 L 35 10 " />
<path id= "7" d=" M 35 10 L 35 -10 " />
<path id= "8" d=" M 20 -5.25 L 20 5.25 " />
<path id= "9" d=" M 20 -5.25 L 29.5 -5.25 " />
<path id= "10" d=" M 29.5 -5.25 L 29.5 5.25 " />
<path id= "11" d=" M 20 5.25 L 29.5 5.25 " />
<path id= "12" d=" M 36.1196 12 L 36.1196 -12 " />
<path id= "13" d=" M 36.1196 12 L 38.324 12 " />
<path id= "14" d=" M 38.324 12 L 40.3148 12 " />
<path id= "15" d=" M 40.3148 12 L 40.3148 -12 " />
<path id= "16" d=" M 36.1196 -12 L 38.324 -12 " />
<path id= "17" d=" M 38.324 -12 L 40.3148 -12 " />
<path id= "18" d=" M 38.324 12 L 38.324 -12 " />
<path d="M48, 0 L48, -0.391876  L48, -0.778823  L48, -1.15598  L48, -1.51859  L48, -1.86211  L48, -2.18221  L48, -2.47487  L48, -2.73641  L48, -2.96353  L48, -3.15339  L48, -3.30359  L48, -3.41225  L48, -3.47799  L48, -3.5 " /><path d="M48, 3.5 Q48, 3.489 48, 3.47799  Q48, 3.44512 48, 3.41225  Q48, 3.35792 48, 3.30359  Q48, 3.22849 48, 3.15339  Q48, 3.05846 48, 2.96353  Q48, 2.84997 48, 2.73641  Q48, 2.60564 48, 2.47487  Q48, 2.32854 48, 2.18221  Q48, 2.02216 48, 1.86211  Q48, 1.69035 48, 1.51859  Q48, 1.33728 48, 1.15598  Q48, 0.9674 48, 0.778823  Q48, 0.393258 48, 8.32667e-16 " /></g>

</svg>