<?xml version="1.0" encoding="UTF-8" standalone="no"?>
<svg xmlns="http://www.w3.org/2000/svg" version="1.1">
<g   fill="none"
   stroke="rgb(0, 0, 0)"
   stroke-linecap="butt"
   stroke-linejoin="miter"
   stroke-width="1.0"
   transform="scale(1, -1)"
  >
<path id= "1" d=" M 6.83514 36.8177 L 6.83514 44.0195 " />
<path id= "2" d=" M -0.164855 36.3938 L -0.164855 44.0195 " />
<path id= "3" d=" M 6.83514 32.233 L 6.83514 32.463 " />
<path d="M24.8655, 13.0678 C23.3461, 11.2073 22.294, 9.35351 21.5637, 7.52862  C20.8174, 5.65526 20.4083, 3.80776 20.264, 1.96657 " /></g>
<g   fill="none"
   stroke="rgb(0, 0, 0)"
   stroke-linecap="butt"
   stroke-linejoin="miter"
   stroke-width="1.0"
   transform="scale(1, -1)"
  >
<path id= "1" d=" M -13.967 34.4156 L -14.0948 36.3403 " />
<path id= "2" d=" M -14.0948 36.3403 L -0.164855 40.4936 " />
<path id= "3" d=" M -13.967 34.4156 L 1.30407 30.8138 " />
<path id= "4" d=" M 1.30407 30.8138 L 1.17621 32.7386 " />
<path id= "5" d=" M -14.0948 36.3403 L 1.17621 32.7386 " />
<path id= "6" d=" M 6.83514 40.1567 L 17.5669 37.6256 " />
<path id= "7" d=" M 1.17621 32.7386 L 17.5669 37.6256 " />
<path d="M5.66975, 36.0551 L5.82201, 36.1028  L5.96531, 36.1522  L6.09914, 36.2033  L6.223, 36.2559  L6.33645, 36.3097  L6.43909, 36.3646  L6.53054, 36.4203  L6.61048, 36.4767  L6.67861, 36.5336  L6.73469, 36.5907  L6.77852, 36.6479  L6.80994, 36.7049  L6.82884, 36.7616  L6.83514, 36.8177 " /><path d="M-0.164855, 36.3938 L-0.117688, 36.2447  L0.0225429, 36.1053  L0.252057, 35.9794  L0.564669, 35.8704  L0.951954, 35.7812  L1.40347, 35.7142  L1.90705, 35.6713  L2.44913, 35.6535  L3.01508, 35.6614  L3.58966, 35.6948  L4.15738, 35.7527  L4.70294, 35.8336  L5.21163, 35.9354  L5.66975, 36.0551 " /><path id= "10" d=" M 17.6948 35.7008 L 17.5669 37.6256 " />
<path id= "11" d=" M 1.30407 30.8138 L 17.6948 35.7008 " />
<path d="M5.66975 43.1511 A3.5 1.16558 1.68655e-15 0 1 6.83514 44.0195" />
<path d="M6.83514 44.0195 A3.5 1.16558 1.68655e-15 1 1 -0.164855 44.0195" />
<path d="M-0.164855 44.0195 A3.5 1.16558 1.68655e-15 0 1 5.66975 43.1511" />
<path d="M5.66975 31.3646 A3.5 1.16558 1.68655e-15 0 1 6.83514 32.233" />
<path d="M2.32203 31.1173 A3.5 1.16558 1.68655e-15 0 1 5.66975 31.3646" />
<path d="M4.33569 43.6473 A1.5 0.499536 1.68655e-15 0 1 4.83514 44.0195" />
<path d="M4.83514 44.0195 A1.5 0.499536 1.68655e-15 1 1 1.83514 44.0195" />
<path d="M1.83514 44.0195 A1.5 0.499536 1.68655e-15 0 1 4.33569 43.6473" />
<path id= "20" d=" M -13.3756 33.9555 L -12.7753 34.1345 " />
<path id= "21" d=" M 11.2546 33.7806 L 13.3756 32.9917 " />
<path id= "22" d=" M -13.3756 33.9555 L -0.034996 28.9932 " />
<path id= "23" d=" M -0.034996 28.9932 L 13.3756 32.9917 " />
<path id= "24" d=" M -13.3756 15.5686 L -13.3756 33.9555 " />
<path id= "25" d=" M 13.3756 14.6048 L 13.3756 32.9917 " />
<path id= "26" d=" M -0.034996 10.6063 L -0.034996 28.9932 " />
<path id= "27" d=" M -0.034996 10.6063 L -13.3756 15.5686 " />
<path id= "28" d=" M -10.0404 27.5289 L -3.37014 25.0478 " />
<path id= "29" d=" M -10.0404 27.5289 L -10.0404 19.9855 " />
<path id= "30" d=" M -3.37014 25.0478 L -3.37014 17.5044 " />
<path id= "31" d=" M -10.0404 19.9855 L -3.37014 17.5044 " />
<path id= "32" d=" M -0.034996 10.6063 L 13.3756 14.6048 " />
<path id= "33" d=" M 10.5817 19.4293 L 2.75887 17.0969 " />
<path id= "34" d=" M 10.5817 19.4293 L 10.5817 28.387 " />
<path id= "35" d=" M 2.75887 17.0969 L 2.75887 26.0546 " />
<path id= "36" d=" M 10.5817 28.387 L 2.75887 26.0546 " />
<path id= "37" d=" M -29.1073 18.924 L -20.7026 21.4299 " />
<path id= "38" d=" M 13.3756 17.1011 L 21.7699 13.9787 " />
<path id= "39" d=" M -29.1073 18.924 L 0.909048 7.75885 " />
<path id= "40" d=" M 0.909048 7.75885 L 21.7699 13.9787 " />
<path id= "41" d=" M -13.3756 17.3635 L -20.7026 20.0889 " />
<path id= "42" d=" M -9.2954 20.2077 L -9.2954 27.2518 " />
<path id= "43" d=" M -10.0404 19.9855 L -9.2954 20.2077 " />
<path id= "44" d=" M -9.2954 20.2077 L -3.37014 18.0037 " />
<path id= "45" d=" M 9.91468 19.6774 L 10.5817 19.4293 " />
<path id= "46" d=" M 2.75887 17.5438 L 9.91468 19.6774 " />
<path id= "47" d=" M 9.91468 19.6774 L 9.91468 28.1881 " />
<path id= "48" d=" M -29.1073 18.4525 L -29.1073 18.924 " />
<path id= "49" d=" M 21.7699 13.5072 L 21.7699 13.9787 " />
<path id= "50" d=" M 0.909048 7.28739 L 0.909048 7.75885 " />
<path id= "51" d=" M 0.909048 7.28739 L -29.1073 18.4525 " />
<path id= "52" d=" M 0.909048 7.28739 L 21.7699 13.5072 " />
<path id= "53" d=" M -20.7026 28.1037 L -13.3756 25.3783 " />
<path id= "54" d=" M -20.7026 20.0889 L -20.7026 28.1037 " />
<path id= "55" d=" M -20.7026 28.1037 L -13.3756 30.2883 " />
<path d="M-31.5589, 18.6155 L1.79259, 6.20985 " /><path d="M-20.7026, 21.8524 L-31.5589, 18.6155 " /><path d="M1.79259, 6.20985 L20.0109, 7.17183 " /><path d="M24.8886, 13.0961 L13.3756, 17.3786 " /><path d="M20.0109, 7.17183 L24.8886, 13.0961 " /><path id= "61" d=" M -13.3756 26.3294 L -17.9493 28.0306 " />
<path id= "62" d=" M -17.9493 28.0306 L -13.3756 29.3943 " />
<path d="M-17.0657, 3.85159 L2.94513, -3.59182 " /><path d="M2.94513, -3.59182 Q-0.149381, 0.0207634 1.79259, 6.20985 " /><path d="M-17.0657, 3.85159 Q-25.4978, 9.44956 -31.5589, 18.6155 " /><path d="M2.94513, -3.59182 L16.6757, -6.20284 " /><path d="M16.6757, -6.20284 Q19.8716, -3.094 20.264, 1.96657 " /><path d="M20.264, 1.96657 Q20.449, 4.35231 20.0109, 7.17183 " /><path d="M24.8655, 13.0678 L24.8886, 13.0961 " /></g>

</svg>