<?xml version="1.0" encoding="UTF-8" standalone="no"?>
<svg xmlns="http://www.w3.org/2000/svg" version="1.1" viewBox="-89.8456 -185.0 128.4179 223.57229999999998">
<g   fill="none"
   stroke="rgb(0, 0, 0)"
   stroke-linecap="butt"
   stroke-linejoin="miter"
   stroke-width="1.0"
   transform="scale(1, -1)"
  >
<path id= "1" d=" M 1.16289 -40.2812 L 1.16289 -46.2577 " />
<path id= "2" d=" M 8.16289 -40.3527 L 8.16289 -46.2577 " />
</g>
<g   fill="none"
   stroke="rgb(0, 0, 0)"
   stroke-linecap="butt"
   stroke-linejoin="miter"
   stroke-width="1.0"
   transform="scale(1, -1)"
  >
<path id= "1" d=" M -33.5723 0.845038 L -33.5723 -13.7419 " />
<path id= "2" d=" M -33.5723 -13.7419 L -22.3824 -20.4794 " />
<path id= "3" d=" M -22.3824 -5.89244 L -22.3824 -20.4794 " />
<path id= "4" d=" M -33.5723 0.845038 L -22.3824 -5.89244 " />
<path id= "5" d=" M -33.5723 0.845038 L 22.3824 5.89244 " />
<path id= "6" d=" M -22.3824 -20.4794 L 33.5723 -15.432 " />
<path id= "7" d=" M -22.3824 -5.89244 L 33.5723 -0.845038 " />
<path id= "8" d=" M 33.5723 -0.845038 L 33.5723 -15.432 " />
<path id= "9" d=" M 22.3824 5.89244 L 33.5723 -0.845038 " />
<path id= "10" d=" M -25.2655 -18.7435 L -25.2655 -24.2675 " />
<path id= "11" d=" M -25.2655 -24.2675 L -21.3635 -26.6169 " />
<path id= "12" d=" M -21.3635 -20.3875 L -21.3635 -26.6169 " />
<path id= "13" d=" M -10.1725 -19.378 L -10.1725 -25.6075 " />
<path id= "14" d=" M -21.3635 -26.6169 L -10.1725 -25.6075 " />
<path id= "15" d=" M -12.9355 -25.8567 L -12.9355 -32.7041 " />
<path id= "16" d=" M -12.9355 -32.7041 L -5.71613 -37.0509 " />
<path id= "17" d=" M -5.71613 -18.976 L -5.71613 -37.0509 " />
<path d="M-9.32579 -20.7768 A4.5 1.57962 -84.8456 0 0 -8.92151 -29.6347" />
<path d="M-8.92151 -29.6347 A4.5 1.57962 -84.8456 0 0 -10.8597 -25.6695" />
<path d="M-10.1725 -20.9085 A4.5 1.57962 -84.8456 0 0 -9.73007 -20.671" />
<path d="M-9.73007 -20.671 A4.5 1.57962 -84.8456 0 0 -9.32579 -20.7768" />
<path id= "22" d=" M 15.7332 -17.0412 L 15.7332 -35.116 " />
<path id= "23" d=" M -5.71613 -37.0509 L 15.7332 -35.116 " />
<path id= "24" d=" M -10.6628 -34.0725 L -10.7507 -35.032 " />
<path id= "25" d=" M -10.7507 -35.032 L -2.08747 -40.2481 " />
<path id= "26" d=" M -1.9087 -38.296 L -2.08747 -40.2481 " />
<path id= "27" d=" M -4.20329 -36.9144 L -1.9087 -38.296 " />
<path id= "28" d=" M -2.08747 -40.2481 L 19.2631 -40.4659 " />
<path id= "29" d=" M -1.9087 -38.296 L 19.4419 -38.5138 " />
<path id= "30" d=" M 19.4419 -38.5138 L 19.2631 -40.4659 " />
<path id= "31" d=" M 14.0507 -35.2678 L 19.4419 -38.5138 " />
<path d="M8.16289 -46.2577 A3.5 0.815677 -180 1 0 1.16289 -46.2577" />
</g>

</svg>