<?xml version="1.0" encoding="UTF-8" standalone="no"?>
<svg xmlns="http://www.w3.org/2000/svg" version="1.1">
<g   fill="none"
   stroke="rgb(0, 0, 0)"
   stroke-linecap="butt"
   stroke-linejoin="miter"
   stroke-width="1.0"
   transform="scale(1, -1)"
  >
<path id= "1" d=" M 38.1872 16.1548 L 38.2582 16.1838 " />
<path id= "2" d=" M 27.891 19.5141 L 28.2265 19.651 " />
</g>
<g   fill="none"
   stroke="rgb(0, 0, 0)"
   stroke-linecap="butt"
   stroke-linejoin="miter"
   stroke-width="1.0"
   transform="scale(1, -1)"
  >
<path id= "1" d=" M 35.3532 -0.137953 L 36.8851 0.32016 " />
<path id= "2" d=" M 33.0651 1.21737 L 35.3532 -0.137953 " />
<path id= "3" d=" M 22.4973 22.709 L 22.9993 28.8132 " />
<path id= "4" d=" M 22.9993 28.8132 L 24.5312 29.2713 " />
<path id= "5" d=" M 36.8851 0.32016 L 38.5814 20.9488 " />
<path id= "6" d=" M 24.5312 29.2713 L 38.5814 20.9488 " />
<path id= "7" d=" M 35.3532 -0.137953 L 37.0495 20.4907 " />
<path id= "8" d=" M 37.0495 20.4907 L 38.5814 20.9488 " />
<path id= "9" d=" M 22.9993 28.8132 L 37.0495 20.4907 " />
<path d="M29.599, 19.4787 Q29.6617, 19.4389 29.7244, 19.3991  Q29.7865, 19.3545 29.8486, 19.3098  Q29.9099, 19.2605 29.9712, 19.2111  Q30.0315, 19.1571 30.0918, 19.1031  Q30.1509, 19.0448 30.2101, 18.9864  Q30.2678, 18.9238 30.3255, 18.8612  Q30.3817, 18.7946 30.4378, 18.728  Q30.4923, 18.6576 30.5467, 18.5871  Q30.6529, 18.441 30.7525, 18.2844  Q30.8502, 18.125 30.9405, 17.9568  Q31.0285, 17.7862 31.1081, 17.6085 " /><path d="M28.2265, 19.651 C28.4332, 19.7343 28.6579, 19.7625 28.8904, 19.7341  C29.1232, 19.7041 29.3631, 19.6176 29.599, 19.4787 " /><path d="M36.936 22.4723 A3.5 1.9465 -67.8039 0 0 38.2156 21.1655" />
<path d="M38.5507 20.5756 A3.5 1.9465 -67.8039 0 0 38.2582 16.1838" />
<path d="M35.6564 22.6814 A3.5 1.9465 -67.8039 0 0 36.936 22.4723" />
<path id= "15" d=" M 33.0651 -0.967014 L 33.0651 16.4493 " />
<path id= "16" d=" M 21.5694 23.2586 L 33.0651 16.4493 " />
<path id= "17" d=" M 21.8263 -5.55259 L 33.0651 -0.967014 " />
<path id= "18" d=" M 21.8263 11.8637 L 33.0651 16.4493 " />
<path id= "19" d=" M 28.8328 1.66025 L 28.8328 10.3684 " />
<path id= "20" d=" M 28.8328 1.66025 L 22.6768 -0.851479 " />
<path id= "21" d=" M 28.8328 10.3684 L 22.6768 7.85667 " />
<path id= "22" d=" M 22.6768 -0.851479 L 22.6768 7.85667 " />
<path id= "23" d=" M 18.1327 21.8563 L 21.5694 23.2586 " />
<path id= "24" d=" M 21.8263 14.2595 L 27.5921 16.612 " />
<path id= "25" d=" M 19.407 19.9805 L 20.8864 20.5841 " />
<path id= "26" d=" M 27.5921 16.612 L 20.8864 20.5841 " />
<path id= "27" d=" M 28.1942 2.03854 L 28.8328 1.66025 " />
<path id= "28" d=" M 28.1942 2.03854 L 28.1942 10.1078 " />
<path id= "29" d=" M 22.6768 -0.212608 L 28.1942 2.03854 " />
<path id= "30" d=" M 20.8864 19.7133 L 20.8864 20.5841 " />
<path id= "31" d=" M 19.8702 19.2987 L 20.8864 19.7133 " />
<path id= "32" d=" M 20.8864 19.7133 L 26.7216 16.2568 " />
<path id= "33" d=" M 21.989 -5.48618 L 22.3046 -5.67311 " />
<path id= "34" d=" M 21.8263 -5.86829 L 22.3046 -5.67311 " />
<path id= "35" d=" M 22.3046 -16.1229 L 22.3046 -5.67311 " />
<path id= "36" d=" M 21.8263 -16.3181 L 22.3046 -16.1229 " />
<path d="M2.02823, 28.1463 L8.63654, 30.0453 " /><path d="M21.8263, 16.4192 L21.8263, -27.1215 " /><path d="M11.9273, 30.9909 L21.8263, 16.4192 " /><path d="M-3.19323, -15.5248 L-3.19323, 10.5996 " /><path d="M-3.19323, 10.5996 Q-2.97294, 19.1157 2.02823, 28.1463 " /><path d="M3.19323, -19.3078 L-3.19323, -15.5248 " /><path d="M3.19323, -19.3078 Q13.2942, -23.6126 21.8263, -27.1215 " /><path d="M-3.19323, 10.5996 L-1.78426, 15.5286 " /><path d="M-1.78426, 15.5286 L0, 21.7704 " /><path d="M0, 21.7704 Q5.16062, 30.0151 11.9273, 30.9909 " /><path d="M3.19323, 6.81667 L3.19323, -19.3078 " /><path d="M3.19323, 6.81667 Q13.2942, 9.48004 21.8263, 16.4192 " /><path d="M0, 21.7704 L3.19323, 6.81667 " /></g>

</svg>