<?xml version="1.0" encoding="UTF-8" standalone="no"?>
<svg xmlns="http://www.w3.org/2000/svg" version="1.1">
<g   fill="none"
   stroke="rgb(0, 0, 0)"
   stroke-linecap="butt"
   stroke-linejoin="miter"
   stroke-width="1.0"
   transform="scale(1, -1)"
  >
<path id= "1" d=" M -33.4005 -2.9569 L -39.4527 -4.97362 " />
<path id= "2" d=" M -30.7295 -9.44526 L -37.2398 -11.6146 " />
<path d="M-14.0232, 22.1622 Q-12.6491, 22.6789 -11.3598, 23.3426 " /></g>
<g   fill="none"
   stroke="rgb(0, 0, 0)"
   stroke-linecap="butt"
   stroke-linejoin="miter"
   stroke-width="1.0"
   transform="scale(1, -1)"
  >
<path id= "1" d=" M -22.7932 -21.4483 L -24.3836 -22.1501 " />
<path id= "2" d=" M -24.3836 -22.1501 L -37.6164 -14.3718 " />
<path id= "3" d=" M -22.7932 -21.4483 L -24.5543 -1.50523 " />
<path id= "4" d=" M -24.5543 -1.50523 L -26.1447 -2.20708 " />
<path id= "5" d=" M -24.3836 -22.1501 L -26.1447 -2.20708 " />
<path id= "6" d=" M -37.6164 -14.3718 L -37.8582 -11.6341 " />
<path id= "7" d=" M -38.4751 -4.64787 L -39.3775 5.5713 " />
<path id= "8" d=" M -26.1447 -2.20708 L -39.3775 5.5713 " />
<path d="M-32.3342, -3.15223 C-32.7228, -2.92375 -33.0961, -2.85536 -33.4005, -2.9569 " /><path d="M-30.7295, -9.44526 L-30.449, -9.28894  L-30.2236, -9.02739  L-30.061, -8.66952  L-29.9667, -8.22752  L-29.9439, -7.71646  L-29.9933, -7.15376  L-30.1134, -6.55859  L-30.3, -5.95124  L-30.5467, -5.3524  L-30.8452, -4.78248  L-31.1852, -4.26091  L-31.5553, -3.80546  L-31.9427, -3.43166  L-32.3342, -3.15223 " /><path id= "11" d=" M -37.7871 6.27316 L -39.3775 5.5713 " />
<path id= "12" d=" M -24.5543 -1.50523 L -37.7871 6.27316 " />
<path d="M-38.3462 -5.15556 A3.5 1.88782 108.429 0 1 -39.4527 -4.97362" />
<path d="M-39.4527 -4.97362 A3.5 1.88782 108.429 0 1 -37.2398 -11.6146" />
<path d="M-37.2398 -11.6146 A3.5 1.88782 108.429 0 1 -38.3462 -5.15556" />
<path d="M-38.3462 -6.94903 A1.5 0.809064 108.429 0 1 -38.8204 -6.87105" />
<path d="M-38.8204 -6.87105 A1.5 0.809064 108.429 0 1 -37.872 -9.7172" />
<path d="M-37.872 -9.7172 A1.5 0.809064 108.429 0 1 -38.3462 -6.94903" />
<path id= "19" d=" M -22.9468 -21.5996 L -23.028 -21.5519 " />
<path id= "20" d=" M -22.9468 -21.5996 L -22.9468 -21.5161 " />
<path id= "21" d=" M -22.9468 -19.709 L -22.9468 -3.66498 " />
<path id= "22" d=" M -22.9468 -3.66498 L -24.4412 -2.78658 " />
<path id= "23" d=" M -7.36866 -16.4087 L -22.9468 -21.5996 " />
<path id= "24" d=" M -18.1955 7.89013 L -32.4547 3.13867 " />
<path id= "25" d=" M -7.36866 1.52599 L -22.9468 -3.66498 " />
<path id= "26" d=" M -7.36866 1.52599 L -7.36866 -16.4087 " />
<path id= "27" d=" M -18.553 -15.6518 L -18.553 -6.68452 " />
<path id= "28" d=" M -18.553 -15.6518 L -12.1619 -13.5222 " />
<path id= "29" d=" M -18.553 -6.68452 L -12.1619 -4.55489 " />
<path id= "30" d=" M -12.1619 -13.5222 L -12.1619 -4.55489 " />
<path id= "31" d=" M -7.36866 1.52599 L -18.1955 7.89013 " />
<path id= "32" d=" M -20.7332 4.96704 L -14.4175 1.25463 " />
<path id= "33" d=" M -20.7332 4.96704 L -28.3225 2.43811 " />
<path id= "34" d=" M -14.4175 1.25463 L -22.0069 -1.27431 " />
<path id= "35" d=" M -28.3225 2.43811 L -22.0069 -1.27431 " />
<path id= "36" d=" M -4.36121 -34.3176 L -12.4519 -29.5619 " />
<path id= "37" d=" M -21.2029 6.88798 L -21.2029 15.9351 " />
<path id= "38" d=" M -4.36121 -34.3176 L -4.36121 6.0353 " />
<path id= "39" d=" M -4.36121 6.0353 L -21.2029 15.9351 " />
<path id= "40" d=" M -9.53102 -17.8278 L -9.53102 -28.5886 " />
<path id= "41" d=" M -9.53102 -17.8278 L -10.2895 -17.3819 " />
<path id= "42" d=" M -12.7634 -13.1687 L -18.553 -15.0979 " />
<path id= "43" d=" M -12.1619 -13.5222 L -12.7634 -13.1687 " />
<path id= "44" d=" M -12.7634 -13.1687 L -12.7634 -4.75532 " />
<path id= "45" d=" M -20.7332 4.07031 L -20.7332 4.96704 " />
<path id= "46" d=" M -15.3911 0.930201 L -20.7332 4.07031 " />
<path id= "47" d=" M -20.7332 4.07031 L -27.3489 1.8658 " />
<path id= "48" d=" M -3.96177 -34.1845 L -4.36121 -34.3176 " />
<path id= "49" d=" M -20.8035 16.0682 L -21.2029 15.9351 " />
<path id= "50" d=" M -3.96177 6.1684 L -4.36121 6.0353 " />
<path id= "51" d=" M -3.96177 6.1684 L -3.96177 -34.1845 " />
<path id= "52" d=" M -3.96177 6.1684 L -20.8035 16.0682 " />
<path id= "53" d=" M -9.53102 -17.8278 L -16.3215 -20.0905 " />
<path id= "54" d=" M -16.3215 -30.8513 L -16.3215 -20.0905 " />
<path id= "55" d=" M -9.53102 -28.5886 L -16.3215 -30.8513 " />
<path id= "56" d=" M -16.3215 -20.0905 L -17.08 -19.6447 " />
<path id= "57" d=" M -22.8236 -27.0293 L -22.8236 -21.5586 " />
<path id= "58" d=" M -16.3215 -30.8513 L -22.8236 -27.0293 " />
<path d="M-3.05953, -36.5084 L-3.05953, 8.32826 " /><path d="M-13.9997, -30.0776 L-3.05953, -36.5084 " /><path d="M-3.05953, 8.32826 L-12.3826, 22.7758 " /><path d="M-21.7057, 19.2887 L-21.7057, 6.72044 " /><path d="M-12.3826, 22.7758 L-14.0232, 22.1622 " /><path d="M-14.0232, 22.1622 L-21.7057, 19.2887 " /><path id= "65" d=" M -17.4673 -21.2104 L -17.4673 -28.3843 " />
<path id= "66" d=" M -17.4673 -21.2104 L -19.0272 -20.2935 " />
<path id= "67" d=" M -21.6778 -21.1768 L -21.6778 -25.9094 " />
<path id= "68" d=" M -17.4673 -28.3843 L -21.6778 -25.9094 " />
<path d="M3.00745, -19.7025 L3.00745, 7.19951 " /><path d="M3.00745, 7.19951 Q2.3027, 6.267 -3.05953, 8.32826 " /><path d="M3.00745, -19.7025 Q2.3027, -27.8106 -3.05953, -36.5084 " /><path d="M3.00745, 7.19951 L6.66134e-16, 22.4183 " /><path d="M0, 22.4183 Q-4.96419, 26.6217 -11.3598, 23.3426 " /><path d="M-11.3598, 23.3426 Q-11.8667, 23.0827 -12.3826, 22.7758 " /><path id= "75" d=" M -17.4673 -24.5064 L -21.6778 -25.9094 " />
</g>

</svg>