<?xml version="1.0" encoding="UTF-8" standalone="no"?>
<svg xmlns="http://www.w3.org/2000/svg" version="1.1">
<g   fill="none"
   stroke="rgb(0, 0, 0)"
   stroke-linecap="butt"
   stroke-linejoin="miter"
   stroke-width="1.0"
   transform="scale(1, -1)"
  >
<path id= "1" d=" M -39.8004 1.5 L -48 1.5 " />
<path id= "2" d=" M -35.5 1.5 L -37.7912 1.5 " />
</g>
<g   fill="none"
   stroke="rgb(0, 0, 0)"
   stroke-linecap="butt"
   stroke-linejoin="miter"
   stroke-width="1.0"
   transform="scale(1, -1)"
  >
<path id= "1" d=" M -36.8136 -8.65272 L -38.8044 -8.84441 " />
<path id= "2" d=" M -36.8136 -8.65272 L -39.018 14.2414 " />
<path id= "3" d=" M -39.018 14.2414 L -41.0088 14.0497 " />
<path id= "4" d=" M -38.8044 -8.84441 L -41.0088 14.0497 " />
<path id= "5" d=" M -40.4745 8.5 L -48 8.5 " />
<path d="M-48, 1.5 L-48, 1.58775  L-48, 1.84661  L-48, 2.26359  L-48, 2.81779  L-48, 3.48141  L-48, 4.22118  L-48, 5  L-48, 5.77882  L-48, 6.51859  L-48, 7.18221  L-48, 7.73641  L-48, 8.15339  L-48, 8.41225  L-48, 8.5 " /><path id= "7" d=" M -35.5 8.5 L -38.4652 8.5 " />
<path id= "8" d=" M -35.5 -10 L -35.5 10 " />
<path id= "9" d=" M -16 -10 L -35.5 -10 " />
<path id= "10" d=" M -16 10 L -35.5 10 " />
<path id= "11" d=" M -30 -5 L -30 5 " />
<path id= "12" d=" M -30 -5 L -22 -5 " />
<path id= "13" d=" M -30 5 L -22 5 " />
<path id= "14" d=" M -22 -5 L -22 5 " />
<path id= "15" d=" M -16 -28 L -16 17 " />
<path id= "16" d=" M -15.5 -28 L -16 -28 " />
<path id= "17" d=" M -15.5 17 L -16 17 " />
<path id= "18" d=" M -16 -13 L -24.5 -13 " />
<path id= "19" d=" M -24.5 -25 L -24.5 -13 " />
<path id= "20" d=" M -16 -25 L -24.5 -25 " />
<path d="M-15.5, -30 L-15.5, 20 " /><path d="M-15.5, 20 L-15.5, 30 " /><path d="M0, -20 L0, 10 " /><path d="M0, 10 Q-6.70646, 14.001 -15.5, 20 " /><path d="M0, -20 Q-6.70646, -24.001 -15.5, -30 " /><path d="M0, 10 L0, 25 " /><path d="M0, 25 Q-6.70646, 32.0499 -15.5, 30 " /></g>

</svg>