<?xml version="1.0" encoding="UTF-8" standalone="no"?>
<svg xmlns="http://www.w3.org/2000/svg" version="1.1" viewBox="-37.8658 -37.8658 172.8948 172.8948">
<g   fill="none"
   stroke="rgb(0, 0, 0)"
   stroke-linecap="butt"
   stroke-linejoin="miter"
   stroke-width="1.0"
   transform="scale(1, -1)"
  >
<path id= "1" d=" M -7.55648 -6.12527 L -9.88543 -8.0815 " />
<path id= "2" d=" M -3.1708 -11.5832 L -5.3832 -13.4415 " />
</g>
<g   fill="none"
   stroke="rgb(0, 0, 0)"
   stroke-linecap="butt"
   stroke-linejoin="miter"
   stroke-width="1.0"
   transform="scale(1, -1)"
  >
<path id= "1" d=" M -32.8658 -16.6118 L -32.8658 13.5873 " />
<path id= "2" d=" M -28.9711 16.8587 L -32.8658 13.5873 " />
<path id= "3" d=" M 28.9711 -16.8587 L 25.0765 -20.13 " />
<path id= "4" d=" M -32.8658 -16.6118 L -16.5421 -17.603 " />
<path id= "5" d=" M 5.69645 -18.9533 L 25.0765 -20.13 " />
<path id= "6" d=" M -32.8658 13.5873 L 25.0765 10.0691 " />
<path id= "7" d=" M 25.0765 -20.13 L 25.0765 10.0691 " />
<path id= "8" d=" M -28.0373 3.45992 L -18.5216 2.88214 " />
<path id= "9" d=" M -13.5517 7.05666 L 8.65952 5.70802 " />
<path id= "10" d=" M 8.65952 -13.7753 L 8.65952 5.70802 " />
<path id= "11" d=" M -28.9711 16.8587 L 28.9711 13.3405 " />
<path id= "12" d=" M 28.9711 13.3405 L 25.0765 10.0691 " />
<path id= "13" d=" M 28.9711 -16.8587 L 28.9711 13.3405 " />
<path id= "14" d=" M -30.374 -9.03362 L -30.374 1.49711 " />
<path id= "15" d=" M -28.0373 3.45992 L -30.374 1.49711 " />
<path id= "16" d=" M -18.7445 -9.70278 L -18.7856 -9.73726 " />
<path id= "17" d=" M -30.374 -9.03362 L -18.7856 -9.73726 " />
<path id= "18" d=" M -18.7856 -9.73726 L -18.7856 0.79347 " />
<path id= "19" d=" M -18.7445 0.827947 L -18.7856 0.79347 " />
<path id= "20" d=" M -30.374 1.49711 L -18.7856 0.79347 " />
<path id= "21" d=" M -18.7445 -16.7885 L -18.7445 2.69486 " />
<path id= "22" d=" M -13.5517 7.05666 L -18.7445 2.69486 " />
<path id= "23" d=" M 8.65952 5.70802 L 4.79085 2.45848 " />
<path id= "24" d=" M -18.7445 2.69486 L -16.5421 2.56113 " />
<path id= "25" d=" M 8.65952 -13.7753 L 5.69645 -16.2642 " />
<path id= "26" d=" M -18.7445 -16.7885 L -16.5421 -16.9222 " />
<path id= "27" d=" M 7.36131 -0.00971282 L 7.36131 -10.2385 " />
<path id= "28" d=" M 7.36131 -0.00971282 L 5.69645 -1.40814 " />
<path id= "29" d=" M 7.36131 -10.2385 L 5.69645 -11.6369 " />
<path id= "30" d=" M -20.717 -7.7642 L -28.4426 -7.29511 " />
<path id= "31" d=" M -20.717 -7.7642 L -20.717 -0.945042 " />
<path id= "32" d=" M -20.717 -0.945042 L -28.4426 -0.47595 " />
<path id= "33" d=" M -28.4426 -7.29511 L -28.4426 -0.47595 " />
<path id= "34" d=" M 5.69645 -10.1374 L 7.36131 -10.2385 " />
<path id= "35" d=" M -26.3655 -5.55039 L -28.4426 -7.29511 " />
<path id= "36" d=" M -26.3655 -5.55039 L -20.717 -5.89336 " />
<path id= "37" d=" M -26.3655 -5.55039 L -26.3655 -0.602072 " />
<path id= "38" d=" M -16.5421 -19.5979 L -16.5421 3.78208 " />
<path id= "39" d=" M -15.8401 4.20501 L -16.5421 3.78208 " />
<path id= "40" d=" M 5.69645 -20.9982 L 4.99444 -21.4211 " />
<path id= "41" d=" M -16.5421 -19.5979 L 4.99444 -21.4211 " />
<path id= "42" d=" M -16.5421 3.78208 L 4.99444 1.95888 " />
<path id= "43" d=" M 4.99444 -21.4211 L 4.99444 1.95888 " />
<path d="M-2.07118, -9.13296 L-2.11549, -8.57166  L-2.24726, -8.01797  L-2.46291, -7.48679  L-2.75666, -6.99243  L-3.12059, -6.54819  L-3.54491, -6.16603  L-4.01819, -5.85623  L-4.52769, -5.62715  L-5.05969, -5.48494  L-5.59988, -5.43344  L-6.13371, -5.47403  L-6.6468, -5.60562  L-7.12535, -5.82466  L-7.55648, -6.12527 " /><path d="M-3.1708, -11.5832 L-3.02716, -11.4543  L-2.89196, -11.316  L-2.7657, -11.1687  L-2.64883, -11.0131  L-2.54178, -10.8498  L-2.44493, -10.6791  L-2.35863, -10.5019  L-2.2832, -10.3188  L-2.2189, -10.1303  L-2.16598, -9.93723  L-2.12462, -9.74024  L-2.09496, -9.54005  L-2.07713, -9.33738  L-2.07118, -9.13296 " /><path id= "46" d=" M -15.8401 4.20501 L 5.69645 2.38181 " />
<path id= "47" d=" M 5.69645 2.38181 L 4.99444 1.95888 " />
<path id= "48" d=" M 5.69645 -20.9982 L 5.69645 2.38181 " />
<path d="M-4.25435 -10.9667 A3.5 3.29265 130.029 0 1 -9.88543 -8.0815" />
<path d="M-9.88543 -8.0815 A3.5 3.29265 130.029 0 1 -5.3832 -13.4415" />
<path d="M-5.3832 -13.4415 A3.5 3.29265 130.029 0 1 -4.25435 -10.9667" />
<path d="M-6.18576 -10.8495 A1.5 1.41113 130.029 0 1 -8.59908 -9.61294" />
<path d="M-8.59908 -9.61294 A1.5 1.41113 130.029 0 1 -6.66956 -11.9101" />
<path d="M-6.66956 -11.9101 A1.5 1.41113 130.029 0 1 -6.18576 -10.8495" />
<path d="M-6.862 -9.57218 A1.5 1.41113 130.029 0 1 -6.3295 -10.2061" />
</g>

</svg>