<?xml version="1.0" encoding="UTF-8" standalone="no"?>
<svg xmlns="http://www.w3.org/2000/svg" version="1.1">
<g   fill="none"
   stroke="rgb(0, 0, 0)"
   stroke-linecap="butt"
   stroke-linejoin="miter"
   stroke-width="1.0"
   transform="scale(1, -1)"
  >
<path d="M30.4618, 0 C29.4962, -1.03431 28.618, -2.14106 27.9152, -3.23151 " /><path d="M27.9152, 3.23151 C28.618, 2.14106 29.4962, 1.03431 30.4618, 0 " /></g>
<g   fill="none"
   stroke="rgb(0, 0, 0)"
   stroke-linecap="butt"
   stroke-linejoin="miter"
   stroke-width="1.0"
   transform="scale(1, -1)"
  >
<path id= "1" d=" M -8.84441 -11 L -8.84441 11 " />
<path id= "2" d=" M 14.2414 -11 L 14.0497 -11 " />
<path id= "3" d=" M -8.84441 -11 L 14.0497 -11 " />
<path id= "4" d=" M -8.84441 11 L 14.0497 11 " />
<path id= "5" d=" M 14.0497 -11 L 14.0497 11 " />
<path id= "6" d=" M 14.2414 11 L 14.0497 11 " />
<path id= "7" d=" M 14.2414 -11 L 14.2414 11 " />
<circle cx ="5" cy ="0" r ="3.5" /><circle cx ="5" cy ="0" r ="1.5" /><path id= "10" d=" M -10 -9 L -10 9 " />
<path id= "11" d=" M -10 9 L -8.84441 9 " />
<path id= "12" d=" M -10 -9 L -8.84441 -9 " />
<path id= "13" d=" M -28 -14 L -28 14 " />
<path id= "14" d=" M -28 14 L 17 14 " />
<path id= "15" d=" M -28 -14 L 17 -14 " />
<path id= "16" d=" M 17 -14 L 17 14 " />
<path id= "17" d=" M -25 -5.405 L -13 -5.405 " />
<path id= "18" d=" M -13 -5.405 L -13 5.405 " />
<path id= "19" d=" M -25 5.405 L -13 5.405 " />
<path id= "20" d=" M -25 -5.405 L -25 5.405 " />
<path d="M-30, -15.5 L20, -15.5 " /><path d="M-30, 15.5 L-30, -15.5 " /><path d="M20, -15.5 L27.9152, -3.23151 " /><path d="M27.9152, -3.23151 L30, 0 " /><path d="M20, 15.5 L-30, 15.5 " /><path d="M30, 0 L27.9152, 3.23151 " /><path d="M27.9152, 3.23151 L20, 15.5 " /><path id= "28" d=" M -15 -3.5 L -23 -3.5 " />
<path id= "29" d=" M -15 -3.5 L -15 3.5 " />
<path id= "30" d=" M -15 3.5 L -23 3.5 " />
<path id= "31" d=" M -23 -3.5 L -23 3.5 " />
<path d="M30.4618, 0 Q30.4618, 0 30, 0 " /></g>

</svg>