<?xml version="1.0" encoding="UTF-8" standalone="no"?>
<svg xmlns="http://www.w3.org/2000/svg" version="1.1">
<g   fill="none"
   stroke="rgb(0, 0, 0)"
   stroke-linecap="butt"
   stroke-linejoin="miter"
   stroke-width="1.0"
   transform="scale(1, -1)"
  >
<path id= "1" d=" M -32.417 12.5606 L -38.5339 13.3363 " />
<path id= "2" d=" M -32.7633 5.54845 L -39.4146 6.39194 " />
<path d="M1.79952, 14.5175 L1.78322, 14.5587 " /></g>
<g   fill="none"
   stroke="rgb(0, 0, 0)"
   stroke-linecap="butt"
   stroke-linejoin="miter"
   stroke-width="1.0"
   transform="scale(1, -1)"
  >
<path id= "1" d=" M -23.4705 -3.15076 L -25.0869 -3.13445 " />
<path id= "2" d=" M -25.0869 -3.13445 L -37.9285 -6.28563 " />
<path id= "3" d=" M -36.3121 -6.30193 L -37.9285 -6.28563 " />
<path id= "4" d=" M -23.4705 -3.15076 L -36.3121 -6.30193 " />
<path id= "5" d=" M -23.4705 -3.15076 L -25.2604 19.6113 " />
<path id= "6" d=" M -25.2604 19.6113 L -26.8769 19.6276 " />
<path id= "7" d=" M -25.0869 -3.13445 L -26.8769 19.6276 " />
<path id= "8" d=" M -37.9285 -6.28563 L -38.9205 6.32928 " />
<path id= "9" d=" M -39.4526 13.0961 L -39.7185 16.4764 " />
<path id= "10" d=" M -26.8769 19.6276 L -39.7185 16.4764 " />
<path d="M-32.7633, 5.54845 L-32.3019, 5.57839  L-31.8549, 5.78264  L-31.4449, 6.15096  L-31.0922, 6.66487  L-30.8147, 7.29862  L-30.6262, 8.02041  L-30.5362, 8.79405  L-30.5492, 9.58076  L-30.6645, 10.3411  L-30.8764, 11.0369  L-31.1742, 11.6333  L-31.543, 12.1004  L-31.9643, 12.4147  L-32.417, 12.5606 " /><path d="M-38.9742 13.3092 A3.5 2.01094 82.7726 0 1 -39.4146 6.39194" />
<path d="M-39.4146 6.39194 A3.5 2.01094 82.7726 1 1 -38.5339 13.3363" />
<path d="M-38.5339 13.3363 A3.5 2.01094 82.7726 0 1 -38.9742 13.3092" />
<path d="M-38.9742 11.3406 A1.5 0.861831 82.7726 0 1 -39.163 8.37605" />
<path d="M-39.163 8.37605 A1.5 0.861831 82.7726 1 1 -38.7855 11.3522" />
<path d="M-38.7855 11.3522 A1.5 0.861831 82.7726 0 1 -38.9742 11.3406" />
<path id= "18" d=" M -23.5713 -4.89864 L -34.0781 -7.47687 " />
<path id= "19" d=" M -34.0781 -7.47687 L -34.0781 -5.75374 " />
<path id= "20" d=" M -23.5713 -4.89864 L -23.5713 -3.1755 " />
<path id= "21" d=" M -23.5713 -1.86848 L -23.5713 14.7877 " />
<path id= "22" d=" M -23.5713 14.7877 L -24.8563 14.4724 " />
<path id= "23" d=" M -7.73804 -6.90655 L -23.5713 -4.89864 " />
<path id= "24" d=" M -18.2448 -9.48478 L -34.0781 -7.47687 " />
<path id= "25" d=" M -7.73804 -6.90655 L -18.2448 -9.48478 " />
<path id= "26" d=" M -7.73804 12.7798 L -23.5713 14.7877 " />
<path id= "27" d=" M -7.73804 12.7798 L -7.73804 -6.90655 " />
<path id= "28" d=" M -19.1055 -0.543384 L -19.1055 9.29979 " />
<path id= "29" d=" M -19.1055 -0.543384 L -12.6098 -1.36714 " />
<path id= "30" d=" M -19.1055 9.29979 L -12.6098 8.47603 " />
<path id= "31" d=" M -12.6098 -1.36714 L -12.6098 8.47603 " />
<path id= "32" d=" M -4.8195 -23.9081 L -21.1633 -27.9187 " />
<path id= "33" d=" M -21.1633 -27.9187 L -21.1633 -23.0984 " />
<path id= "34" d=" M -21.1633 -10.5851 L -21.1633 -9.11466 " />
<path id= "35" d=" M -21.1633 14.4823 L -21.1633 16.3756 " />
<path id= "36" d=" M -4.8195 -23.9081 L -4.8195 20.3862 " />
<path id= "37" d=" M -4.8195 20.3862 L -21.1633 16.3756 " />
<path id= "38" d=" M -9.83647 -10.3744 L -9.83647 -22.1862 " />
<path id= "39" d=" M -9.83647 -22.1862 L -16.1464 -23.7346 " />
<path id= "40" d=" M -13.1935 8.3328 L -19.1055 9.08253 " />
<path id= "41" d=" M -12.6098 8.47603 L -13.1935 8.3328 " />
<path id= "42" d=" M -13.1935 -1.29312 L -13.1935 8.3328 " />
<path id= "43" d=" M -4.41352 -23.9596 L -4.8195 -23.9081 " />
<path id= "44" d=" M -20.7573 -27.9702 L -21.1633 -27.9187 " />
<path id= "45" d=" M -4.41352 -23.9596 L -20.7573 -27.9702 " />
<path id= "46" d=" M -4.41352 20.3347 L -4.8195 20.3862 " />
<path id= "47" d=" M -4.41352 20.3347 L -4.41352 -23.9596 " />
<path id= "48" d=" M -9.83647 -10.3744 L -16.7382 -9.49919 " />
<path id= "49" d=" M -16.7382 -21.311 L -16.7382 -9.49919 " />
<path id= "50" d=" M -9.83647 -22.1862 L -16.7382 -21.311 " />
<path id= "51" d=" M -16.7382 -9.49919 L -23.048 -11.0476 " />
<path id= "52" d=" M -23.048 -22.8594 L -23.048 -11.0476 " />
<path id= "53" d=" M -16.1464 -23.7346 L -23.048 -22.8594 " />
<path id= "54" d=" M -16.7382 -21.311 L -23.048 -22.8594 " />
<path d="M-3.53796, -25.7134 L-3.53796, 23.5025 " /><path d="M-21.6329, -30.1536 L-3.53796, -25.7134 " /><path d="M-3.53796, 23.5025 L-5.92179, 25.511 " /><path d="M-5.92179, 25.511 L-12.5854, 31.1256 " /><path d="M-21.6329, 19.0622 L-21.6329, 14.5419 " /><path d="M-21.6329, -9.05511 L-21.6329, -10.7003 " /><path d="M-21.6329, -23.0388 L-21.6329, -30.1536 " /><path d="M-12.5854, 31.1256 L-21.6329, 19.0622 " /><path id= "63" d=" M -17.8501 -11.7407 L -17.8501 -19.6152 " />
<path id= "64" d=" M -17.8501 -11.7407 L -21.9361 -12.7433 " />
<path id= "65" d=" M -21.9361 -12.7433 L -21.9361 -20.6179 " />
<path id= "66" d=" M -17.8501 -19.6152 L -21.9361 -20.6179 " />
<path d="M2.91854, -18.9702 L2.91854, 10.5594 " /><path d="M2.91854, 10.5594 Q2.60766, 12.4769 1.78322, 14.5587 " /><path d="M1.78322, 14.5587 Q1.4386, 15.4289 1.00425, 16.3278 " /><path d="M1.00425, 16.3278 Q-0.630957, 19.7119 -3.53796, 23.5025 " /><path d="M2.91854, -18.9702 Q1.98849, -21.1098 -3.53796, -25.7134 " /><path d="M2.62321, 11.9809 L0, 24.6079 " /><path d="M0, 24.6079 Q-5.4454, 32.2378 -12.5854, 31.1256 " /><path id= "74" d=" M -17.8501 -13.2615 L -21.9361 -12.7433 " />
</g>

</svg>