<?xml version="1.0" encoding="UTF-8" standalone="no"?>
<svg xmlns="http://www.w3.org/2000/svg" version="1.1">
<g   fill="none"
   stroke="rgb(0, 0, 0)"
   stroke-linecap="butt"
   stroke-linejoin="miter"
   stroke-width="1.0"
   transform="scale(1, -1)"
  >
<path id= "1" d=" M 0.063391 43.6098 L 0.063391 47.0665 " />
<path id= "2" d=" M -6.93661 42.9488 L -6.93661 47.0665 " />
<path id= "3" d=" M -6.93661 36.0877 L -6.93661 37.8202 " />
</g>
<g   fill="none"
   stroke="rgb(0, 0, 0)"
   stroke-linecap="butt"
   stroke-linejoin="miter"
   stroke-width="1.0"
   transform="scale(1, -1)"
  >
<path id= "1" d=" M 13.9371 35.6705 L 14.0688 37.5406 " />
<path id= "2" d=" M 10.2611 34.6864 L 13.9371 35.6705 " />
<path id= "3" d=" M -10.6086 35.1046 L -17.7783 38.2116 " />
<path id= "4" d=" M -17.7783 38.2116 L -17.6465 40.0816 " />
<path id= "5" d=" M 14.0688 37.5406 L -1.66678 44.3595 " />
<path id= "6" d=" M -17.6465 40.0816 L -1.66678 44.3595 " />
<path id= "7" d=" M 13.9371 35.6705 L -1.79854 42.4895 " />
<path id= "8" d=" M -1.79854 42.4895 L -1.66678 44.3595 " />
<path id= "9" d=" M -17.7783 38.2116 L -1.79854 42.4895 " />
<path d="M-5.84224, 38.6405 L-5.45768, 38.7264  L-5.03232, 38.7895  L-4.57476, 38.8286  L-4.09422, 38.8429  L-3.60041, 38.832  L-3.10329, 38.7962  L-2.6129, 38.7363  L-2.13914, 38.6533  L-1.69156, 38.5491  L-1.27922, 38.4256  L-0.910415, 38.2855  L-0.592606, 38.1314  L-0.332206, 37.9666  L-0.13447, 37.7944 " /><path d="M-6.93661, 37.8202 L-6.93071, 37.8909  L-6.91303, 37.9606  L-6.88363, 38.0291  L-6.84261, 38.0962  L-6.7901, 38.1616  L-6.72629, 38.225  L-6.65139, 38.2864  L-6.56566, 38.3455  L-6.46937, 38.402  L-6.36286, 38.4558  L-6.24648, 38.5067  L-6.12063, 38.5546  L-5.98573, 38.5992  L-5.84224, 38.6405 " /><path d="M-5.84224 47.7857 A3.5 0.990182 3.31603e-15 0 0 0.063391 47.0665" />
<path d="M-6.93661 47.0665 A3.5 0.990182 3.31603e-15 0 0 -5.84224 47.7857" />
<path id= "14" d=" M 13.4104 33.7448 L -0.336041 37.8547 " />
<path id= "15" d=" M -13.4104 34.3546 L -0.336041 37.8547 " />
<path id= "16" d=" M 13.4104 17.2374 L 13.4104 33.7448 " />
<path id= "17" d=" M -0.336041 21.3472 L -0.336041 37.8547 " />
<path id= "18" d=" M 9.97379 29.497 L 3.10057 31.5519 " />
<path id= "19" d=" M 9.97379 29.497 L 9.97379 21.8238 " />
<path id= "20" d=" M 3.10057 31.5519 L 3.10057 23.8787 " />
<path id= "21" d=" M 9.97379 21.8238 L 3.10057 23.8787 " />
<path id= "22" d=" M -13.4104 21.4129 L -13.4104 34.3546 " />
<path id= "23" d=" M -3.05986 24.177 L -10.6866 22.1353 " />
<path id= "24" d=" M -3.05986 24.177 L -3.05986 33.2889 " />
<path id= "25" d=" M -10.6866 22.1353 L -10.6866 31.2472 " />
<path id= "26" d=" M -3.05986 33.2889 L -10.6866 31.2472 " />
<path id= "27" d=" M 9.24743 29.3025 L 9.97379 29.497 " />
<path id= "28" d=" M 9.24743 29.3025 L 3.10057 31.1403 " />
<path id= "29" d=" M 9.24743 22.041 L 9.24743 29.3025 " />
<path id= "30" d=" M -9.99925 31.0417 L -10.6866 31.2472 " />
<path id= "31" d=" M -9.99925 22.3193 L -9.99925 31.0417 " />
<path id= "32" d=" M -9.99925 31.0417 L -3.05986 32.8994 " />
<path id= "33" d=" M 21.109 19.4128 L 13.4104 21.7145 " />
<path id= "34" d=" M 21.109 14.9357 L 21.109 19.4128 " />
<path d="M-25.0049, 15.9626 L-20.6197, 21.0315 " /><path d="M-2.48796, 21.9906 L31.8781, 11.716 " /><path d="M-20.6197, 21.0315 L-2.48796, 21.9906 " /><path d="M10.1147, -5.08209 L-10.505, 1.08267 " /><path d="M-18.8382, 8.22297 Q-22.1621, 11.7296 -25.0049, 15.9626 " /><path d="M17.3782, -3.13759 L10.1147, -5.08209 " /><path d="M17.3782, -3.13759 Q25.7469, 3.97691 31.8781, 11.716 " /><path d="M-10.505, 1.08267 L-17.183, 5.1373 " /><path d="M-17.183, 5.1373 Q-20.2512, 10.1276 -20.8117, 15.1707 " /><path d="M-20.8117, 15.1707 Q-21.1365, 18.0922 -20.6197, 21.0315 " /><path d="M-3.24145, 3.02717 L17.3782, -3.13759 " /><path d="M-3.24145, 3.02717 Q-0.372624, 11.786 -2.48796, 21.9906 " /><path d="M-17.183, 5.1373 L-3.24145, 3.02717 " /></g>

</svg>